<svg width="24" height="24" viewBox="0 0 24 24" fill="none" xmlns="http://www.w3.org/2000/svg">
<path d="M11.117 8.7189C10.2467 8.7189 9.41213 9.0646 8.79677 9.67996C8.18142 10.2953 7.83572 11.1299 7.83572 12.0002C7.83572 12.0962 7.84011 12.1915 7.84831 12.2855L11.4023 8.7315C11.3083 8.72329 11.2134 8.7189 11.117 8.7189ZM0.256035 22.1498L1.5076 23.4002C1.55154 23.4441 1.61114 23.4688 1.67327 23.4688C1.7354 23.4688 1.79499 23.4441 1.83894 23.4002L5.04168 20.1965C6.80847 21.0995 8.79451 21.5509 10.9998 21.5509C16.6306 21.5509 20.8318 18.6183 23.6033 12.7531C23.7147 12.5172 23.7725 12.2596 23.7725 11.9987C23.7725 11.7378 23.7147 11.4802 23.6033 11.2443C22.4959 8.91167 21.1624 7.04204 19.6028 5.6354L22.7021 2.53726C22.746 2.49331 22.7707 2.43371 22.7707 2.37158C22.7707 2.30945 22.746 2.24986 22.7021 2.20591L21.4514 0.955223C21.4075 0.911303 21.3479 0.886631 21.2858 0.886631C21.2236 0.886631 21.164 0.911303 21.1201 0.955223L0.256035 21.8181C0.234243 21.8399 0.216955 21.8657 0.20516 21.8942C0.193365 21.9226 0.187296 21.9531 0.187296 21.9839C0.187296 22.0147 0.193365 22.0452 0.20516 22.0737C0.216955 22.1022 0.234243 22.128 0.256035 22.1498ZM16.2732 12.0002C16.2733 12.8908 16.0427 13.7662 15.6039 14.5412C15.1651 15.3162 14.533 15.9643 13.7692 16.4224C13.0055 16.8805 12.1361 17.133 11.2458 17.1553C10.3554 17.1775 9.47452 16.9688 8.68884 16.5494L10.1133 15.125C10.6877 15.3089 11.3017 15.331 11.8879 15.189C12.4742 15.0469 13.0099 14.7461 13.4364 14.3196C13.8629 13.8931 14.1637 13.3573 14.3058 12.7711C14.4479 12.1849 14.4257 11.5709 14.2418 10.9964L15.6662 9.57203C16.0659 10.3189 16.2745 11.1531 16.2732 12.0002Z" fill="#66707C"/>
</svg>
