<svg xmlns="http://www.w3.org/2000/svg" viewBox="0 0 179.95 118"><defs><style>.cls-1{fill:#fff;}</style></defs><g id="Layer_2" data-name="Layer 2"><g id="Layer_1-2" data-name="Layer 1"><path class="cls-1" d="M38.41,89A15.51,15.51,0,1,0,17.5,89,27.91,27.91,0,0,0,0,114.9,3.11,3.11,0,0,0,3.1,118H52.74a3.11,3.11,0,0,0,3.11-3.1A27.95,27.95,0,0,0,38.41,89ZM18.62,77.67a9.29,9.29,0,1,1,2.72,6.58A9.31,9.31,0,0,1,18.62,77.67Z"/><path class="cls-1" d="M100.46,89a15.51,15.51,0,1,0-20.91,0,27.91,27.91,0,0,0-17.5,25.88,3.11,3.11,0,0,0,3.1,3.1H114.8a3.11,3.11,0,0,0,3.1-3.1A27.95,27.95,0,0,0,100.46,89ZM80.67,77.67a9.29,9.29,0,1,1,2.72,6.58A9.31,9.31,0,0,1,80.67,77.67Z"/><path class="cls-1" d="M162.51,89a15.51,15.51,0,1,0-20.91,0,27.95,27.95,0,0,0-17.5,25.88,3.11,3.11,0,0,0,3.11,3.1h49.64a3.11,3.11,0,0,0,3.1-3.1A27.95,27.95,0,0,0,162.51,89ZM142.72,77.67a9.29,9.29,0,1,1,2.72,6.58,9.31,9.31,0,0,1-2.72-6.58Z"/><path class="cls-1" d="M34.13,56H83.77A3.1,3.1,0,0,0,86,55a3.06,3.06,0,0,0,.91-2.19A27.92,27.92,0,0,0,69.44,27a15.51,15.51,0,1,0-20.91,0A27.91,27.91,0,0,0,31,52.85,3.06,3.06,0,0,0,31.94,55a3.1,3.1,0,0,0,2.19.91ZM49.64,15.62a9.3,9.3,0,1,1,2.73,6.58,9.32,9.32,0,0,1-2.73-6.58Z"/><path class="cls-1" d="M96.18,56h49.64a3.11,3.11,0,0,0,3.11-3.1A27.95,27.95,0,0,0,131.49,27a15.51,15.51,0,1,0-20.91,0,27.91,27.91,0,0,0-17.5,25.88,3.11,3.11,0,0,0,3.1,3.1Zm15.51-40.33a9.3,9.3,0,1,1,2.73,6.58A9.32,9.32,0,0,1,111.69,15.62Z"/></g></g></svg>