<svg width="280" height="185" viewBox="0 0 380 237" fill="none" xmlns="http://www.w3.org/2000/svg">
<g opacity="0.7">
<path opacity="0.7" d="M380 222.184C380 230.133 373.408 236.724 365.459 236.724H14.5408C6.59183 236.724 0 230.133 0 222.184V14.5408C0 6.59183 6.59183 0 14.5408 0H365.459C373.408 0 380 6.59183 380 14.5408V222.184Z" fill="#595959"/>
</g>
<path fill-rule="evenodd" clip-rule="evenodd" d="M380 222.184C380 230.133 373.408 236.724 365.459 236.724H14.5408C6.59183 236.724 0 230.133 0 222.184V14.5408C0 6.59183 6.59183 0 14.5408 0H365.459C373.408 0 380 6.59183 380 14.5408V222.184Z" fill="url(#paint0_linear_3364_12772)"/>
<path d="M365.459 0H98.1016L238.857 236.724H365.459C373.408 236.724 379.999 230.133 379.999 222.184V14.5408C379.999 6.59183 373.408 0 365.459 0Z" fill="url(#paint1_linear_3364_12772)"/>
<path fill-rule="evenodd" clip-rule="evenodd" d="M86.8559 95.0002C86.8559 99.0716 83.56 102.174 79.6825 102.174H43.4274C39.3559 102.174 36.2539 98.8777 36.2539 95.0002V69.4083C36.2539 65.3369 39.5498 62.2349 43.4274 62.2349H79.4886C83.56 62.2349 86.662 65.5308 86.662 69.4083V95.0002H86.8559Z" fill="url(#paint2_linear_3364_12772)"/>
<path d="M86.8559 74.8369V73.8675H77.5498V62.2349H76.5804V73.8675H69.0192C68.0498 70.7655 65.3355 68.439 61.8457 68.0512V62.041H61.0702V67.8573C57.3865 67.8573 54.2845 70.3777 53.3151 73.6737H46.5294V62.041H45.56V73.6737H36.2539V74.643H45.56V87.8267H36.2539V88.7961H45.56V102.174H46.5294V88.7961H53.1212C53.8968 92.4798 57.1927 95.194 61.0702 95.194V102.174H62.0396V95.194C65.7233 94.8063 68.6314 92.2859 69.407 88.7961H76.5804V102.174H77.5498V88.7961H86.8559V87.8267H81.4274V74.643H86.8559V74.8369ZM52.9274 88.0206H46.5294V74.8369H53.1212C53.1212 75.4186 52.9274 75.8063 52.9274 76.3879C52.9274 78.3267 53.7029 80.2655 54.8661 81.6226C53.509 83.1737 52.9274 84.9186 52.9274 86.8573C52.9274 87.2451 52.9274 87.6328 52.9274 88.0206ZM61.2641 94.4185C57.1927 94.4185 53.8968 91.1226 53.8968 87.0512C53.8968 85.1124 54.6723 83.3675 55.8355 82.0104L56.0294 81.6226L55.8355 81.2349C54.4784 79.8777 53.8968 78.1328 53.8968 76.1941C53.8968 72.1226 57.1927 68.8267 61.2641 68.8267C65.3355 68.8267 68.6314 72.1226 68.6314 76.1941C68.6314 78.1328 67.8559 79.8777 66.6927 81.2349L66.3049 81.6226L66.6927 82.0104C68.0498 83.3675 68.6314 85.1124 68.6314 87.0512C68.6314 91.1226 65.3355 94.4185 61.2641 94.4185ZM80.458 88.0206H69.6008C69.6008 87.6328 69.6008 87.4389 69.6008 87.0512C69.6008 85.1124 68.8253 83.1737 67.6621 81.8165C69.0192 80.2655 69.6008 78.5206 69.6008 76.5818C69.6008 76.0002 69.6008 75.6124 69.407 75.0308H80.458V88.0206Z" fill="url(#paint3_linear_3364_12772)"/>
<path d="M38.3879 130.092L37.2246 128.929L40.7144 125.051H43.6226V142.694H41.6838V127.184C41.6838 126.796 41.6838 126.602 41.6838 126.602L38.3879 130.092Z" fill="#D6D6D6"/>
<path d="M47.5 142.5V139.786C47.5 139.398 47.5 139.204 47.5 139.204C47.5 139.204 47.6939 139.01 47.8877 138.816L56.2245 131.255C56.4184 131.061 56.6122 130.867 56.6122 130.673C56.6122 130.479 56.6122 130.286 56.6122 129.898V127.571C56.6122 127.377 56.6122 127.184 56.6122 126.99L56.4184 126.796C56.2245 126.602 56.2245 126.602 56.0306 126.602C56.0306 126.602 55.8367 126.602 55.449 126.602H50.9898C50.602 126.602 50.4082 126.602 50.4082 126.602C50.4082 126.602 50.2143 126.602 50.0204 126.796C49.8265 126.99 49.8265 126.99 49.8265 126.99C49.8265 126.99 49.8265 127.184 49.8265 127.571V127.959H47.6939V126.99C47.6939 126.408 47.8878 126.02 48.2755 125.633L48.8571 125.051C49.2449 124.663 49.6327 124.469 50.0204 124.469H56.4184C56.8061 124.469 57.1939 124.663 57.5816 125.051L58.1633 125.633C58.551 126.02 58.7449 126.408 58.7449 126.99V130.479C58.7449 130.867 58.7449 131.061 58.7449 131.255C58.7449 131.449 58.551 131.643 58.3571 131.837L50.0204 139.398C49.8265 139.592 49.6326 139.786 49.6326 139.979C49.6326 140.173 49.6326 140.367 49.6326 140.561V140.755H58.9388V142.5H47.5Z" fill="#D6D6D6"/>
<path d="M72.898 133.581L73.8674 134.357C74.0613 134.551 74.2552 134.745 74.2552 134.745C74.2552 134.939 74.2552 135.132 74.2552 135.52V140.173C74.2552 140.561 74.2552 140.755 74.2552 140.949C74.2552 141.143 74.0613 141.337 73.8674 141.53L73.4797 141.918C73.0919 142.306 72.7042 142.5 72.3164 142.5H65.1429C64.7552 142.5 64.3674 142.306 63.9797 141.918L63.398 141.337C63.0103 140.949 62.8164 140.561 62.8164 140.173V139.204H64.9491V139.592C64.9491 139.786 64.9491 139.979 64.9491 140.173L65.1429 140.367C65.3368 140.561 65.3368 140.561 65.5307 140.561C65.5307 140.561 65.7246 140.561 66.1123 140.561H71.1531C71.5409 140.561 71.7348 140.561 71.7348 140.561C71.7348 140.561 71.9286 140.561 72.1225 140.367C72.3164 140.173 72.3164 140.173 72.3164 140.173C72.3164 140.173 72.3164 139.979 72.3164 139.592V135.714C72.3164 135.326 72.1225 134.939 71.9286 134.745L71.5409 134.357C71.347 134.163 71.1531 133.969 70.9593 133.969C70.7654 133.969 70.5715 133.969 70.3776 133.969H66.3062V132.418H69.9899C70.3776 132.418 70.5715 132.418 70.5715 132.418C70.7654 132.418 70.7654 132.224 71.1531 132.03L71.5409 131.643C71.7348 131.449 71.9286 131.255 71.9286 131.255C71.9286 131.255 71.9286 130.867 71.9286 130.673V127.571C71.9286 127.377 71.9286 127.184 71.9286 126.99L71.7348 126.796C71.5409 126.602 71.5409 126.602 71.347 126.602C71.347 126.602 71.1531 126.602 70.7654 126.602H66.694C66.3062 126.602 66.1123 126.602 66.1123 126.602C66.1123 126.602 65.9184 126.602 65.7246 126.796C65.5307 126.99 65.5307 126.99 65.5307 126.99C65.5307 126.99 65.5307 127.184 65.5307 127.571V127.959H63.398V126.99C63.398 126.408 63.5919 126.02 63.9797 125.633L64.5613 125.051C64.9491 124.663 65.3368 124.469 65.7246 124.469H71.7348C72.1225 124.469 72.5103 124.663 72.898 125.051L73.4797 125.633C73.8674 126.02 74.0613 126.408 74.0613 126.99V131.061C74.0613 131.255 74.0613 131.449 74.0613 131.643C74.0613 131.643 73.8674 131.837 73.6735 132.03L72.898 132.612C72.7042 132.806 72.3164 133 72.1225 133V133.194C72.3164 133.388 72.7042 133.388 72.898 133.581Z" fill="#D6D6D6"/>
<path d="M86.8559 131.643H88.9885V136.683H91.315V138.428H88.9885V142.5H86.8559V138.428H77.9375V136.296L86.4681 124.663H88.7947L80.4579 135.908C80.264 136.102 80.0702 136.296 80.0702 136.296V136.49H86.8559V131.643Z" fill="#D6D6D6"/>
<path d="M118.07 131.061H123.692C124.08 131.061 124.468 131.255 124.856 131.643L125.437 132.225C125.825 132.612 126.019 133 126.019 133.388V140.368C126.019 140.949 125.825 141.337 125.437 141.531L124.856 142.112C124.468 142.5 124.08 142.694 123.692 142.694H116.131C115.743 142.694 115.356 142.5 114.968 142.112L114.386 141.531C113.999 141.143 113.805 140.755 113.805 140.368V139.398H115.937V139.786C115.937 139.98 115.937 140.174 115.937 140.368L116.131 140.561C116.325 140.755 116.325 140.755 116.519 140.755C116.519 140.755 116.713 140.755 117.101 140.755H122.723C123.111 140.755 123.305 140.755 123.305 140.755C123.305 140.755 123.499 140.755 123.692 140.561C123.886 140.368 123.886 140.368 123.886 140.368C123.886 140.368 123.886 140.174 123.886 139.786V133.776C123.886 133.582 123.886 133.388 123.886 133.194L123.692 133C123.499 132.806 123.499 132.806 123.305 132.806C123.305 132.806 123.111 132.806 122.723 132.806H117.876C117.488 132.806 117.101 133 116.713 133.388C116.325 133.776 116.131 133.97 116.131 134.357H113.999V125.051H125.825V126.796H116.131V132.225H116.325C116.325 132.031 116.519 131.837 116.907 131.449C117.294 131.255 117.682 131.061 118.07 131.061Z" fill="#D6D6D6"/>
<path d="M143.275 128.153H141.143V127.766C141.143 127.572 141.143 127.378 141.143 127.184L140.949 126.99C140.755 126.796 140.755 126.796 140.561 126.796C140.561 126.796 140.367 126.796 139.979 126.796H133.969C133.581 126.796 133.388 126.796 133.388 126.796C133.388 126.796 133.194 126.796 133 126.99C132.806 127.184 132.806 127.184 132.806 127.184C132.806 127.184 132.806 127.378 132.806 127.766V132.806H133L133.194 132.613C133.775 132.031 134.163 131.643 134.551 131.643H141.337C141.724 131.643 142.112 131.837 142.5 132.225L143.081 132.806C143.469 133.194 143.663 133.582 143.663 134.164V140.562C143.663 141.143 143.469 141.531 143.081 141.725L142.5 142.306C142.112 142.694 141.724 142.888 141.337 142.888H133.194C132.806 142.888 132.418 142.694 132.03 142.306L131.449 141.725C131.061 141.337 130.867 140.949 130.867 140.562V127.378C130.867 126.796 131.061 126.408 131.449 126.021L132.03 125.439C132.418 125.051 132.806 124.857 133.194 124.857H141.143C141.53 124.857 141.918 125.051 142.306 125.439L142.888 126.021C143.275 126.408 143.469 126.796 143.469 127.378V128.153H143.275ZM141.337 139.786V134.551C141.337 134.357 141.337 134.164 141.337 133.97L141.143 133.776C140.949 133.582 140.949 133.582 140.755 133.582C140.755 133.582 140.561 133.582 140.173 133.582H134.551C134.163 133.582 133.969 133.582 133.969 133.582C133.775 133.582 133.581 133.776 133.388 133.97C133 134.164 132.806 134.357 132.806 134.551V139.786C132.806 139.98 132.806 140.174 132.806 140.368L133 140.562C133.194 140.755 133.194 140.755 133.388 140.755C133.388 140.755 133.581 140.755 133.969 140.755H140.367C140.755 140.755 140.949 140.755 140.949 140.755C140.949 140.755 141.143 140.755 141.337 140.562C141.53 140.368 141.53 140.368 141.53 140.368C141.337 140.174 141.337 139.98 141.337 139.786Z" fill="#D6D6D6"/>
<path d="M148.512 142.5L156.848 127.184C157.042 126.99 157.236 126.796 157.236 126.602H146.379V124.857H159.369V126.796L151.032 142.5H148.512Z" fill="#D6D6D6"/>
<path d="M163.243 134.745L164.406 133.775C164.6 133.581 164.988 133.388 165.181 133.388V133.194C164.988 133.194 164.794 133 164.406 132.806L163.63 132.224C163.437 132.03 163.243 131.643 163.243 131.449V127.183C163.243 126.602 163.437 126.214 163.824 125.826L164.406 125.245C164.794 124.857 165.181 124.663 165.569 124.663H173.324C173.712 124.663 174.1 124.857 174.488 125.245L175.069 125.826C175.457 126.214 175.651 126.602 175.651 127.183V131.449C175.651 131.837 175.457 132.03 175.263 132.224L174.488 132.806C174.294 133 173.906 133.194 173.712 133.194V133.388C173.906 133.388 174.1 133.581 174.488 133.775L175.651 134.745C175.845 134.939 176.039 135.326 176.039 135.714V140.173C176.039 140.755 175.845 141.143 175.457 141.337C175.263 141.53 175.069 141.53 174.875 141.918C174.488 142.306 174.1 142.5 173.712 142.5H165.375C164.988 142.5 164.6 142.306 164.212 141.918C164.018 141.724 163.824 141.53 163.63 141.337C163.243 140.949 163.049 140.561 163.049 140.173V135.714C163.049 135.326 163.049 134.939 163.243 134.745ZM172.161 134.551H167.12C166.926 134.551 166.732 134.551 166.539 134.551C166.539 134.551 166.345 134.745 166.151 134.745L165.569 135.132C165.375 135.326 165.181 135.52 165.181 135.52C165.181 135.52 165.181 135.714 165.181 136.102V139.592C165.181 139.786 165.181 139.979 165.181 140.173L165.375 140.367C165.569 140.561 165.569 140.561 165.763 140.561C165.763 140.561 165.957 140.561 166.345 140.561H172.743C173.13 140.561 173.324 140.561 173.324 140.561C173.324 140.561 173.518 140.561 173.712 140.367C173.906 140.173 173.906 140.173 173.906 140.173C173.906 140.173 173.906 139.979 173.906 139.592V136.102C173.906 135.908 173.906 135.714 173.906 135.52C173.906 135.52 173.712 135.326 173.518 135.132L172.937 134.745C172.743 134.551 172.549 134.551 172.549 134.551C172.549 134.551 172.355 134.551 172.161 134.551ZM172.549 126.602H166.733C166.345 126.602 166.151 126.602 166.151 126.602C166.151 126.602 165.957 126.602 165.763 126.796C165.569 126.99 165.569 126.99 165.569 126.99C165.569 126.99 165.569 127.183 165.569 127.571V130.867C165.569 131.061 165.569 131.255 165.569 131.449C165.569 131.449 165.763 131.643 165.957 131.837L166.539 132.418C166.732 132.612 166.926 132.612 166.926 132.612C166.926 132.612 167.314 132.612 167.508 132.612H171.773C172.161 132.612 172.355 132.612 172.355 132.612C172.355 132.612 172.549 132.418 172.743 132.418L173.324 131.837C173.518 131.643 173.712 131.449 173.712 131.449C173.712 131.449 173.712 131.255 173.712 130.867V127.571C173.712 127.377 173.712 127.183 173.712 126.99L173.518 126.796C173.324 126.602 173.324 126.602 173.13 126.602C172.937 126.796 172.743 126.602 172.549 126.602Z" fill="#D6D6D6"/>
<path d="M199.501 139.204H201.634V139.592C201.634 139.786 201.634 139.979 201.634 140.173L201.828 140.367C202.021 140.561 202.021 140.561 202.215 140.561C202.215 140.561 202.409 140.561 202.797 140.561H208.807C209.195 140.561 209.389 140.561 209.389 140.561C209.389 140.561 209.583 140.561 209.777 140.367C209.97 140.173 209.97 140.173 209.97 140.173C209.97 140.173 209.97 139.979 209.97 139.592V134.551H209.777L209.583 134.745C209.001 135.326 208.613 135.714 208.226 135.714H201.44C201.052 135.714 200.664 135.52 200.277 135.132L199.695 134.551C199.307 134.163 199.113 133.775 199.113 133.388V126.99C199.113 126.408 199.307 126.02 199.695 125.633L200.277 125.051C200.664 124.663 201.052 124.469 201.44 124.469H209.583C209.97 124.469 210.358 124.663 210.746 125.051L211.328 125.633C211.715 126.02 211.909 126.408 211.909 126.99V140.173C211.909 140.755 211.715 141.143 211.328 141.337L210.746 141.918C210.358 142.306 209.97 142.5 209.583 142.5H201.634C201.246 142.5 200.858 142.306 200.47 141.918L199.889 141.337C199.501 140.949 199.307 140.561 199.307 140.173V139.204H199.501ZM201.44 127.765V133C201.44 133.194 201.44 133.388 201.44 133.581L201.634 133.775C201.828 133.969 201.828 133.969 202.021 133.969C202.021 133.969 202.215 133.969 202.603 133.969H208.226C208.613 133.969 208.807 133.969 208.807 133.969C209.001 133.969 209.195 133.775 209.389 133.581C209.777 133.388 209.97 133.194 209.97 133V127.765C209.97 127.571 209.97 127.377 209.97 127.184L209.777 126.99C209.583 126.796 209.583 126.796 209.389 126.796C209.389 126.796 209.195 126.796 208.807 126.796H202.603C202.215 126.796 202.021 126.796 202.021 126.796C202.021 126.796 201.828 126.796 201.634 126.99C201.44 127.184 201.44 127.184 201.44 127.184C201.44 127.377 201.44 127.377 201.44 127.765Z" fill="#D6D6D6"/>
<path d="M219.276 124.857H229.164C229.551 124.857 229.939 125.051 230.327 125.439L230.908 126.021C231.296 126.408 231.49 126.796 231.49 127.378V140.562C231.49 141.143 231.296 141.531 230.908 141.725L230.327 142.306C229.939 142.694 229.551 142.888 229.164 142.888H219.276C218.888 142.888 218.5 142.694 218.112 142.306L217.531 141.725C217.143 141.337 216.949 140.949 216.949 140.562V127.378C216.949 126.796 217.143 126.408 217.531 126.021L218.112 125.439C218.5 125.051 218.888 124.857 219.276 124.857ZM229.551 139.786V127.766C229.551 127.572 229.551 127.378 229.551 127.184L229.357 126.99C229.164 126.796 229.164 126.796 228.97 126.796C228.97 126.796 228.776 126.796 228.388 126.796H220.245C219.857 126.796 219.664 126.796 219.664 126.796C219.664 126.796 219.47 126.796 219.276 126.99C219.082 127.184 219.082 127.184 219.082 127.184C219.082 127.184 219.082 127.378 219.082 127.766V139.786C219.082 139.98 219.082 140.174 219.082 140.368L219.276 140.562C219.47 140.755 219.47 140.755 219.664 140.755C219.664 140.755 219.857 140.755 220.245 140.755H228.388C228.776 140.755 228.97 140.755 228.97 140.755C228.97 140.755 229.164 140.755 229.357 140.562C229.551 140.368 229.551 140.368 229.551 140.368C229.551 140.174 229.551 139.98 229.551 139.786Z" fill="#D6D6D6"/>
<path d="M236.529 130.092L235.365 128.929L238.855 125.051H241.763V142.694H239.824V127.184C239.824 126.796 239.824 126.602 239.824 126.602L236.529 130.092Z" fill="#D6D6D6"/>
<path d="M245.643 142.5V139.786C245.643 139.398 245.643 139.204 245.643 139.204C245.643 139.204 245.836 139.01 246.03 138.816L254.367 131.255C254.561 131.061 254.755 130.867 254.755 130.673C254.755 130.479 254.755 130.286 254.755 129.898V127.571C254.755 127.377 254.755 127.184 254.755 126.99L254.561 126.796C254.367 126.602 254.367 126.602 254.173 126.602C254.173 126.602 253.979 126.602 253.592 126.602H249.132C248.745 126.602 248.551 126.602 248.551 126.602C248.551 126.602 248.357 126.602 248.163 126.796C247.969 126.99 247.969 126.99 247.969 126.99C247.969 126.99 247.969 127.184 247.969 127.571V127.959H245.836V126.99C245.836 126.408 246.03 126.02 246.418 125.633L247 125.051C247.387 124.663 247.775 124.469 248.163 124.469H254.561C254.949 124.469 255.336 124.663 255.724 125.051L256.306 125.633C256.694 126.02 256.887 126.408 256.887 126.99V130.479C256.887 130.867 256.887 131.061 256.887 131.255C256.887 131.449 256.694 131.643 256.5 131.837L248.163 139.398C247.969 139.592 247.775 139.786 247.775 139.979C247.775 140.173 247.775 140.367 247.775 140.561V140.755H257.081V142.5H245.643Z" fill="#D6D6D6"/>
<path d="M290.041 133.581L291.01 134.357C291.204 134.551 291.398 134.745 291.398 134.745C291.398 134.939 291.398 135.132 291.398 135.52V140.173C291.398 140.561 291.398 140.755 291.398 140.949C291.398 141.143 291.204 141.337 291.01 141.53L290.622 141.918C290.234 142.306 289.847 142.5 289.459 142.5H282.286C281.898 142.5 281.51 142.306 281.122 141.918L280.541 141.337C280.153 140.949 279.959 140.561 279.959 140.173V139.204H282.092V139.592C282.092 139.786 282.092 139.979 282.092 140.173L282.286 140.367C282.479 140.561 282.479 140.561 282.673 140.561C282.673 140.561 282.867 140.561 283.255 140.561H288.296C288.683 140.561 288.877 140.561 288.877 140.561C288.877 140.561 289.071 140.561 289.265 140.367C289.459 140.173 289.459 140.173 289.459 140.173C289.459 140.173 289.459 139.979 289.459 139.592V135.714C289.459 135.326 289.265 134.939 289.071 134.745L288.683 134.357C288.49 134.163 288.296 133.969 288.102 133.969C287.908 133.969 287.714 133.969 287.52 133.969H283.449V132.418H287.132C287.52 132.418 287.714 132.418 287.714 132.418C287.908 132.418 287.908 132.224 288.296 132.03L288.683 131.643C288.877 131.449 289.071 131.255 289.071 131.255C289.071 131.255 289.071 130.867 289.071 130.673V127.571C289.071 127.377 289.071 127.184 289.071 126.99L288.877 126.796C288.683 126.602 288.683 126.602 288.49 126.602C288.49 126.602 288.296 126.602 287.908 126.602H283.837C283.449 126.602 283.255 126.602 283.255 126.602C283.255 126.602 283.061 126.602 282.867 126.796C282.673 126.99 282.673 126.99 282.673 126.99C282.673 126.99 282.673 127.184 282.673 127.571V127.959H280.541V126.99C280.541 126.408 280.735 126.02 281.122 125.633L281.704 125.051C282.092 124.663 282.479 124.469 282.867 124.469H288.877C289.265 124.469 289.653 124.663 290.041 125.051L290.622 125.633C291.01 126.02 291.204 126.408 291.204 126.99V131.061C291.204 131.255 291.204 131.449 291.204 131.643C291.204 131.837 291.01 131.837 290.816 132.03L290.041 132.612C289.847 132.806 289.459 133 289.265 133V133.194C289.459 133.388 289.653 133.388 290.041 133.581Z" fill="#D6D6D6"/>
<path d="M304 131.643H306.133V136.683H308.46V138.428H306.133V142.5H304V138.428H295.082V136.296L303.613 124.663H305.939L297.602 135.908C297.409 136.102 297.215 136.296 297.215 136.296V136.49H304V131.643Z" fill="#D6D6D6"/>
<path d="M316.216 131.061H321.839C322.227 131.061 322.614 131.255 323.002 131.643L323.584 132.225C323.972 132.612 324.165 133 324.165 133.388V140.368C324.165 140.949 323.972 141.337 323.584 141.531L323.002 142.112C322.614 142.5 322.227 142.694 321.839 142.694H314.278C313.89 142.694 313.502 142.5 313.114 142.112L312.533 141.531C312.145 141.143 311.951 140.755 311.951 140.368V139.398H314.084V139.786C314.084 139.98 314.084 140.174 314.084 140.368L314.278 140.561C314.472 140.755 314.472 140.755 314.665 140.755C314.665 140.755 314.859 140.755 315.247 140.755H320.87C321.257 140.755 321.451 140.755 321.451 140.755C321.451 140.755 321.645 140.755 321.839 140.561C322.033 140.368 322.033 140.368 322.033 140.368C322.033 140.368 322.033 140.174 322.033 139.786V133.776C322.033 133.582 322.033 133.388 322.033 133.194L321.839 133C321.645 132.806 321.645 132.806 321.451 132.806C321.451 132.806 321.257 132.806 320.87 132.806H316.023C315.635 132.806 315.247 133 314.859 133.388C314.472 133.776 314.278 133.97 314.278 134.357H312.145V125.051H323.972V126.796H314.278V132.225H314.472C314.472 132.031 314.665 131.837 315.053 131.449C315.441 131.255 316.023 131.061 316.216 131.061Z" fill="#D6D6D6"/>
<path d="M341.418 128.153H339.285V127.766C339.285 127.572 339.285 127.378 339.285 127.184L339.091 126.99C338.898 126.796 338.898 126.796 338.704 126.796C338.704 126.796 338.51 126.796 338.122 126.796H332.112C331.724 126.796 331.53 126.796 331.53 126.796C331.53 126.796 331.336 126.796 331.142 126.99C330.949 127.184 330.949 127.184 330.949 127.184C330.949 127.184 330.949 127.378 330.949 127.766V132.806H331.142L331.336 132.613C331.918 132.031 332.306 131.643 332.693 131.643H339.479C339.867 131.643 340.255 131.837 340.642 132.225L341.224 132.806C341.612 133.194 341.806 133.582 341.806 134.164V140.562C341.806 141.143 341.612 141.531 341.224 141.725L340.642 142.306C340.255 142.694 339.867 142.888 339.479 142.888H331.336C330.949 142.888 330.561 142.694 330.173 142.306L329.591 141.725C329.204 141.337 329.01 140.949 329.01 140.562V127.378C329.01 126.796 329.204 126.408 329.591 126.021L330.173 125.439C330.561 125.051 330.949 124.857 331.336 124.857H339.285C339.673 124.857 340.061 125.051 340.449 125.439L341.03 126.021C341.418 126.408 341.612 126.796 341.612 127.378V128.153H341.418ZM339.479 139.786V134.551C339.479 134.357 339.479 134.164 339.479 133.97L339.285 133.776C339.091 133.582 339.091 133.582 338.898 133.582C338.898 133.582 338.704 133.582 338.316 133.582H332.693C332.306 133.582 332.112 133.582 332.112 133.582C331.918 133.582 331.724 133.776 331.53 133.97C331.142 134.164 330.949 134.357 330.949 134.551V139.786C330.949 139.98 330.949 140.174 330.949 140.368L331.142 140.562C331.336 140.755 331.336 140.755 331.53 140.755C331.53 140.755 331.724 140.755 332.112 140.755H338.51C338.898 140.755 339.091 140.755 339.091 140.755C339.091 140.755 339.285 140.755 339.479 140.562C339.673 140.368 339.673 140.368 339.673 140.368C339.479 140.174 339.479 139.98 339.479 139.786Z" fill="#D6D6D6"/>
<path d="M47.4995 197.561C47.4995 197.173 47.4995 196.785 47.4995 196.592V185.541H49.2444V200.275H47.4995L39.7444 188.449C39.9383 188.836 39.9383 189.03 39.9383 189.418V200.275H38.1934V185.541H39.7444L47.4995 197.561Z" fill="#D6D6D6"/>
<path d="M59.9069 199.5C59.9069 199.694 59.713 199.888 59.3253 200.082C59.1314 200.275 58.9375 200.275 58.7437 200.275C58.7437 200.275 58.5498 200.275 58.162 200.275H54.4784C54.0906 200.275 53.8967 200.082 53.509 199.888L52.9273 199.5C52.5396 199.306 52.3457 198.918 52.3457 198.531V196.01C52.3457 195.622 52.5396 195.235 52.9273 195.041L53.509 194.653C53.8967 194.459 54.0906 194.265 54.4784 194.265H58.162C58.3559 194.265 58.5498 194.265 58.7437 194.265C58.7437 194.265 58.9375 194.265 58.9375 194.459C59.1314 194.653 59.1314 194.653 59.1314 194.847V192.327C59.1314 192.133 59.1314 191.939 59.1314 191.939C59.1314 191.939 59.1314 191.745 58.9375 191.745C58.7437 191.745 58.7437 191.551 58.5498 191.551C58.5498 191.551 58.3559 191.551 57.9682 191.551H55.2539C55.06 191.551 54.8661 191.551 54.6722 191.551C54.6722 191.551 54.4784 191.745 54.0906 191.939L52.7335 190.969L53.3151 190.582C53.509 190.388 53.7029 190.194 53.8967 190.194C53.8967 190.194 54.0906 190.194 54.4784 190.194H59.3253C59.713 190.194 59.9069 190.388 60.2947 190.582L60.8763 190.969C61.2641 191.163 61.4579 191.551 61.4579 191.939V198.143C61.4579 198.337 61.4579 198.531 61.4579 198.531C61.4579 198.531 61.458 198.724 61.6518 198.724C61.8457 198.918 61.8457 198.918 61.8457 198.918C61.8457 198.918 61.8457 199.112 61.8457 199.306V200.275H61.0702C60.8763 200.275 60.6824 200.275 60.4886 200.275C60.4886 200.275 60.2947 200.082 60.1008 200.082C60.1008 199.694 59.9069 199.694 59.9069 199.5ZM54.4784 196.204V197.755C54.4784 197.949 54.4784 198.143 54.4784 198.143C54.4784 198.143 54.4783 198.337 54.6722 198.337C54.8661 198.531 54.8661 198.531 55.06 198.531C55.06 198.531 55.2539 198.531 55.6416 198.531H58.162C58.3559 198.531 58.5498 198.531 58.7437 198.531C58.7437 198.531 58.9375 198.337 59.3253 198.337C59.5192 198.143 59.7131 198.143 59.7131 197.949C59.7131 197.949 59.7131 197.755 59.7131 197.561V196.204C59.7131 196.01 59.7131 195.816 59.7131 195.816C59.7131 195.816 59.713 195.622 59.5192 195.622C59.3253 195.429 59.3253 195.429 59.1314 195.429C59.1314 195.429 58.9375 195.429 58.5498 195.429H55.4477C55.2539 195.429 55.06 195.429 54.8661 195.429C54.8661 195.429 54.6722 195.429 54.4784 195.622C54.2845 195.816 54.2845 195.816 54.2845 195.816C54.4784 196.01 54.4784 196.01 54.4784 196.204Z" fill="#D6D6D6"/>
<path d="M72.5115 190.775C72.7054 190.582 72.7053 190.582 73.0931 190.388L73.4809 190.194C73.6747 190 73.8686 190 74.0625 190C74.0625 190 74.2564 190 74.6441 190H77.94C78.3278 190 78.5217 190.194 78.9094 190.388L79.4911 190.775C79.8788 190.969 80.0727 191.357 80.0727 191.745V200.276H78.3278V192.133C78.3278 191.939 78.3278 191.745 78.3278 191.745C78.3278 191.745 78.3278 191.551 78.1339 191.551C77.94 191.551 77.94 191.357 77.7462 191.357C77.7462 191.357 77.5523 191.357 77.1645 191.357H74.6441C74.4502 191.357 74.2564 191.357 74.0625 191.357C74.0625 191.357 73.8686 191.551 73.4809 191.551C73.0931 191.745 72.8992 191.939 72.8992 192.133V200.276H71.1543V192.133C71.1543 191.939 71.1543 191.745 71.1543 191.745C71.1543 191.745 71.1543 191.551 70.9604 191.551C70.7666 191.551 70.7666 191.357 70.5727 191.357C70.5727 191.357 70.3788 191.357 70.1849 191.357H68.0523C67.8584 191.357 67.6645 191.357 67.4707 191.357C67.4707 191.357 67.2768 191.551 66.889 191.551C66.6951 191.745 66.5013 191.745 66.5013 191.939C66.5013 191.939 66.5013 192.133 66.5013 192.327V200.276H64.9502V192.133C64.9502 191.939 64.9502 191.745 64.9502 191.745C64.9502 191.745 64.9503 191.551 64.7564 191.551C64.5625 191.551 64.5625 191.357 64.5625 191.357C64.5625 191.357 64.5625 191.163 64.5625 190.969V190H65.338C65.5319 190 65.7258 190 65.9196 190C65.9196 190 66.1135 190.194 66.3074 190.194C66.5013 190.388 66.6951 190.582 66.6951 190.775C66.6951 190.582 66.889 190.388 67.0829 190.194C67.2768 190 67.4707 190 67.6645 190C67.6645 190 67.8584 190 68.2462 190H71.3482C71.736 190 71.9298 190.194 72.3176 190.388C72.5115 190.388 72.5115 190.582 72.5115 190.775Z" fill="#D6D6D6"/>
<path d="M90.1541 198.337L91.5112 199.306L90.9296 199.694C90.7357 199.888 90.5418 200.082 90.3479 200.082C90.3479 200.082 90.1541 200.082 89.7663 200.082H84.3377C83.95 200.082 83.7561 199.888 83.3683 199.694L82.7867 199.306C82.3989 199.112 82.2051 198.725 82.2051 198.337V191.551C82.2051 191.163 82.3989 190.776 82.7867 190.582L83.3683 190.194C83.7561 190 83.95 189.806 84.3377 189.806H89.1847C89.3785 189.806 89.7663 190 90.1541 190.194L90.7357 190.582C91.1234 190.776 91.3173 191.163 91.3173 191.551V195.816H84.1439V197.755C84.1439 197.949 84.1439 198.143 84.1439 198.143C84.1439 198.143 84.1438 198.337 84.3377 198.337C84.5316 198.531 84.5316 198.531 84.7255 198.531C84.7255 198.531 84.9194 198.531 85.3071 198.531H89.3785C89.5724 198.531 89.7663 198.531 89.9602 198.531C89.7663 198.725 89.9602 198.531 90.1541 198.337ZM89.5724 194.653V192.133C89.5724 191.939 89.5724 191.745 89.5724 191.745C89.5724 191.745 89.5724 191.551 89.3785 191.551C89.1847 191.551 89.1847 191.357 88.9908 191.357C88.9908 191.357 88.7969 191.357 88.603 191.357H85.3071C85.1132 191.357 84.9194 191.357 84.7255 191.357C84.7255 191.357 84.5316 191.357 84.3377 191.551C84.1438 191.745 84.1439 191.745 84.1439 191.745C84.1439 191.745 84.1439 191.939 84.1439 192.133V194.653H89.5724Z" fill="#D6D6D6"/>
<path d="M106.632 193.489H101.591C101.203 193.489 101.009 193.296 100.622 193.102L100.04 192.714C99.6523 192.52 99.6523 192.132 99.6523 191.938V187.479C99.6523 187.092 99.8462 186.704 100.234 186.51L100.816 186.122C101.203 185.928 101.397 185.734 101.785 185.734H107.407C107.795 185.734 107.989 185.928 108.377 186.122L108.958 186.51C109.346 186.704 109.54 187.092 109.54 187.479V188.255H107.795V187.867C107.795 187.673 107.795 187.479 107.795 187.479C107.795 187.479 107.795 187.285 107.601 187.285C107.407 187.285 107.407 187.092 107.214 187.092C107.214 187.092 107.02 187.092 106.826 187.092H102.754C102.561 187.092 102.367 187.092 102.367 187.092C102.367 187.092 102.173 187.091 101.979 187.285C101.785 187.479 101.785 187.479 101.785 187.479C101.785 187.479 101.785 187.673 101.785 187.867V191.163C101.785 191.357 101.785 191.551 101.785 191.551C101.785 191.551 101.785 191.745 101.979 191.745C102.173 191.938 102.173 191.938 102.367 191.938C102.367 191.938 102.561 191.938 102.754 191.938H107.795C108.183 191.938 108.377 192.132 108.765 192.326L109.346 192.714C109.734 192.908 109.928 193.296 109.928 193.683V198.143C109.928 198.53 109.734 198.918 109.346 199.112L108.765 199.5C108.377 199.694 108.183 199.887 107.795 199.887H101.785C101.397 199.887 101.203 199.694 100.816 199.5L100.234 199.112C99.8462 198.918 99.6523 198.53 99.6523 198.143V197.367H101.397V197.755C101.397 197.949 101.397 198.143 101.397 198.143C101.397 198.143 101.397 198.336 101.591 198.336C101.785 198.53 101.785 198.53 101.979 198.53C101.979 198.53 102.173 198.53 102.561 198.53H107.02C107.214 198.53 107.407 198.53 107.601 198.53C107.601 198.53 107.795 198.53 107.989 198.336C108.183 198.143 108.183 198.143 108.183 198.143C108.183 198.143 108.183 197.949 108.183 197.755V194.265C108.183 194.071 108.183 193.877 108.183 193.877C108.183 193.877 108.183 193.683 107.989 193.683C107.795 193.489 107.795 193.489 107.601 193.489C107.02 193.489 106.826 193.489 106.632 193.489Z" fill="#D6D6D6"/>
<path d="M117.489 200.276H114.193C113.805 200.276 113.612 200.082 113.224 199.888L112.642 199.5C112.254 199.306 112.061 198.918 112.061 198.531V190H113.805V198.143C113.805 198.337 113.805 198.531 113.805 198.531C113.805 198.531 113.805 198.724 113.999 198.724C114.193 198.918 114.193 198.918 114.387 198.918C114.387 198.918 114.581 198.918 114.969 198.918H117.295C117.489 198.918 117.683 198.918 117.877 198.918C117.877 198.918 118.071 198.724 118.458 198.724C118.652 198.531 118.846 198.531 118.846 198.337C118.846 198.337 118.846 198.143 118.846 197.949V190H120.591V198.143C120.591 198.337 120.591 198.531 120.591 198.531C120.591 198.531 120.591 198.724 120.785 198.724C120.979 198.918 120.979 198.918 120.979 198.918C120.979 198.918 120.979 199.112 120.979 199.306V200.276H120.203C120.01 200.276 119.816 200.276 119.622 200.276C119.622 200.276 119.428 200.082 119.234 200.082C119.04 199.888 118.846 199.694 118.846 199.5C118.846 199.694 118.652 199.888 118.458 200.082C118.265 200.275 118.071 200.276 117.877 200.276C117.877 200.276 117.877 200.276 117.489 200.276Z" fill="#D6D6D6"/>
<path d="M123.693 189.806H124.469C124.663 189.806 124.857 189.806 125.05 189.806C125.05 189.806 125.244 190 125.438 190C125.632 190.194 125.826 190.388 125.826 190.582C125.826 190.388 126.02 190.194 126.214 190C126.408 189.806 126.602 189.806 126.795 189.806C126.795 189.806 126.989 189.806 127.377 189.806H129.316C129.704 189.806 129.897 190 130.285 190.194L130.867 190.582L129.51 191.551L129.316 191.357C129.122 191.357 129.122 191.163 128.928 191.163C128.928 191.163 128.734 191.163 128.346 191.163H127.377C127.183 191.163 126.989 191.163 126.795 191.163C126.795 191.163 126.602 191.357 126.214 191.357C126.02 191.551 125.826 191.551 125.826 191.745C125.826 191.745 125.826 191.939 125.826 192.133V200.082H124.081V191.939C124.081 191.745 124.081 191.551 124.081 191.551C124.081 191.551 124.081 191.357 123.887 191.357C123.693 191.357 123.693 191.163 123.693 191.163C123.693 191.163 123.693 190.969 123.693 190.776V189.806Z" fill="#D6D6D6"/>
<path d="M132.418 189.806H133.193C133.387 189.806 133.581 189.806 133.775 189.806C133.775 189.806 133.969 190 134.163 190C134.357 190.194 134.551 190.388 134.551 190.582C134.551 190.388 134.744 190.194 134.938 190C135.132 189.806 135.326 189.806 135.52 189.806C135.52 189.806 135.714 189.806 136.102 189.806H139.785C140.173 189.806 140.367 190 140.755 190.194L141.336 190.582C141.724 190.776 141.918 191.163 141.918 191.551V200.082H140.173V191.939C140.173 191.745 140.173 191.551 140.173 191.551C140.173 191.551 140.173 191.357 139.979 191.357C139.785 191.357 139.785 191.163 139.591 191.163C139.591 191.163 139.398 191.163 139.01 191.163H136.296C136.102 191.163 135.908 191.163 135.714 191.163C135.714 191.163 135.52 191.357 135.132 191.357C134.938 191.551 134.744 191.551 134.744 191.745C134.744 191.745 134.744 191.939 134.744 192.133V200.082H132.806V191.939C132.806 191.745 132.806 191.551 132.806 191.551C132.806 191.551 132.806 191.357 132.612 191.357C132.418 191.357 132.418 191.163 132.418 191.163C132.418 191.163 132.418 190.969 132.418 190.776V189.806Z" fill="#D6D6D6"/>
<path d="M151.612 199.5C151.612 199.694 151.418 199.888 151.03 200.082C150.836 200.275 150.643 200.275 150.449 200.275C150.449 200.275 150.255 200.275 149.867 200.275H146.377C145.99 200.275 145.796 200.082 145.408 199.888L144.826 199.5C144.439 199.306 144.245 198.918 144.245 198.531V196.01C144.245 195.622 144.439 195.235 144.826 195.041L145.408 194.653C145.796 194.459 145.99 194.265 146.377 194.265H150.061C150.255 194.265 150.449 194.265 150.643 194.265C150.643 194.265 150.836 194.265 150.836 194.459C151.03 194.653 151.03 194.653 151.03 194.847V192.327C151.03 192.133 151.03 191.939 151.03 191.939C151.03 191.939 151.03 191.745 150.836 191.745C150.643 191.745 150.643 191.551 150.449 191.551C150.449 191.551 150.255 191.551 150.061 191.551H146.571C146.377 191.551 146.183 191.551 145.99 191.551C145.99 191.551 145.796 191.745 145.408 191.939L144.051 190.969L144.632 190.582C144.826 190.388 145.02 190.194 145.214 190.194C145.214 190.194 145.408 190.194 145.796 190.194H150.643C151.03 190.194 151.224 190.388 151.612 190.582L152.194 190.969C152.581 191.163 152.775 191.551 152.775 191.939V198.143C152.775 198.337 152.775 198.531 152.775 198.531C152.775 198.531 152.775 198.724 152.969 198.724C153.163 198.918 153.163 198.918 153.163 198.918C153.163 198.918 153.163 199.112 153.163 199.306V200.275H152.388C152.194 200.275 152 200.275 151.806 200.275C151.806 200.275 151.612 200.082 151.418 200.082C151.806 199.694 151.612 199.694 151.612 199.5ZM146.183 196.204V197.755C146.183 197.949 146.183 198.143 146.183 198.143C146.183 198.143 146.183 198.337 146.377 198.337C146.571 198.531 146.571 198.531 146.765 198.531C146.765 198.531 146.959 198.531 147.347 198.531H149.867C150.061 198.531 150.255 198.531 150.449 198.531C150.449 198.531 150.643 198.337 151.03 198.337C151.224 198.143 151.418 198.143 151.418 197.949C151.418 197.949 151.418 197.755 151.418 197.561V196.204C151.418 196.01 151.418 195.816 151.418 195.816C151.418 195.816 151.418 195.622 151.224 195.622C151.03 195.429 151.03 195.429 150.836 195.429C150.836 195.429 150.643 195.429 150.449 195.429H147.347C147.153 195.429 146.959 195.429 146.765 195.429C146.765 195.429 146.571 195.429 146.377 195.622C146.183 195.816 146.183 195.816 146.183 195.816C146.183 196.01 146.183 196.01 146.183 196.204Z" fill="#D6D6D6"/>
<path d="M164.215 190.775C164.408 190.582 164.408 190.582 164.796 190.388L165.184 190.194C165.378 190 165.572 190 165.766 190C165.766 190 165.96 190 166.347 190H169.643C170.031 190 170.225 190.194 170.613 190.388L171.194 190.775C171.582 190.969 171.776 191.357 171.776 191.745V200.276H169.643V192.133C169.643 191.939 169.643 191.745 169.643 191.745C169.643 191.745 169.643 191.551 169.449 191.551C169.255 191.551 169.255 191.357 169.062 191.357C169.062 191.357 168.868 191.357 168.48 191.357H166.153C165.959 191.357 165.766 191.357 165.572 191.357C165.572 191.357 165.378 191.551 164.99 191.551C164.602 191.745 164.408 191.939 164.408 192.133V200.276H162.664V192.133C162.664 191.939 162.664 191.745 162.664 191.745C162.664 191.745 162.664 191.551 162.47 191.551C162.276 191.551 162.276 191.357 162.082 191.357C162.082 191.357 161.888 191.357 161.694 191.357H159.949C159.755 191.357 159.562 191.357 159.368 191.357C159.368 191.357 159.174 191.551 158.786 191.551C158.592 191.745 158.398 191.745 158.398 191.939C158.398 191.939 158.398 192.133 158.398 192.327V200.276H156.653V192.133C156.653 191.939 156.653 191.745 156.653 191.745C156.653 191.745 156.653 191.551 156.459 191.551C156.266 191.551 156.266 191.357 156.266 191.357C156.266 191.357 156.266 191.163 156.266 190.969V190H157.041C157.235 190 157.429 190 157.623 190C157.623 190 157.817 190.194 158.011 190.194C158.204 190.388 158.398 190.582 158.398 190.775C158.398 190.582 158.592 190.388 158.786 190.194C158.98 190 159.174 190 159.368 190C159.368 190 159.562 190 159.949 190H163.051C163.439 190 163.633 190.194 164.021 190.388C164.021 190.388 164.215 190.582 164.215 190.775Z" fill="#D6D6D6"/>
<path d="M181.858 198.337L183.215 199.306L182.633 199.694C182.439 199.888 182.245 200.082 182.052 200.082C182.052 200.082 181.858 200.082 181.47 200.082H175.847C175.46 200.082 175.266 199.888 174.878 199.694L174.296 199.306C173.909 199.112 173.715 198.725 173.715 198.337V191.551C173.715 191.163 173.909 190.776 174.296 190.582L174.878 190.194C175.266 190 175.46 189.806 175.847 189.806H180.694C180.888 189.806 181.276 190 181.664 190.194L182.245 190.582C182.633 190.776 182.827 191.163 182.827 191.551V195.816H175.654V197.755C175.654 197.949 175.654 198.143 175.654 198.143C175.654 198.143 175.654 198.337 175.847 198.337C176.041 198.531 176.041 198.531 176.235 198.531C176.235 198.531 176.429 198.531 176.817 198.531H180.888C181.082 198.531 181.276 198.531 181.47 198.531C181.47 198.725 181.664 198.531 181.858 198.337ZM181.082 194.653V192.133C181.082 191.939 181.082 191.745 181.082 191.745C181.082 191.745 181.082 191.551 180.888 191.551C180.694 191.551 180.694 191.357 180.501 191.357C180.501 191.357 180.307 191.357 179.919 191.357H176.623C176.429 191.357 176.235 191.357 176.041 191.357C176.041 191.357 175.847 191.357 175.654 191.551C175.46 191.745 175.46 191.745 175.46 191.745C175.46 191.745 175.46 191.939 175.46 192.133V194.653H181.082Z" fill="#D6D6D6"/>
<path d="M262.316 25.7861H264.837C266.194 25.7861 267.163 26.1739 267.745 26.7555C268.327 27.3372 268.714 28.5004 268.714 29.8576C268.714 31.7963 267.939 33.1535 266.388 33.5412C267.939 33.929 268.908 35.0923 268.908 37.4188C268.908 38.582 268.52 39.5514 267.939 40.3269C267.357 40.9086 266.582 41.2963 265.418 41.2963H262.316V25.7861ZM264.255 27.3372V32.7657C265.031 32.7657 265.612 32.5719 266 32.1841C266.388 31.7963 266.582 31.0208 266.582 30.2453C266.582 29.2759 266.388 28.5004 266.194 28.1127C265.806 27.531 265.225 27.3372 264.255 27.3372ZM264.255 34.3167V39.7453C265.031 39.7453 265.612 39.5514 266 39.1637C266.388 38.7759 266.582 38.1943 266.582 37.2249C266.582 36.0616 266.388 35.48 266 35.0923C265.806 34.5106 265.225 34.3167 264.255 34.3167Z" fill="#D6D6D6"/>
<path d="M277.632 41.2961H275.694V39.939C275.112 40.9083 274.53 41.2961 273.755 41.2961C272.979 41.2961 272.398 40.9083 272.01 40.3267C271.428 39.7451 271.234 38.1941 271.234 36.0614C271.234 34.1226 271.428 32.5716 271.816 31.7961C272.204 30.8267 272.979 30.439 273.949 30.439C274.336 30.439 274.724 30.6328 275.112 30.8267C275.306 31.0206 275.694 31.4083 275.887 31.7961V30.6328H277.826V41.2961H277.632ZM274.336 39.5512C274.918 39.5512 275.112 39.1634 275.306 38.5818C275.5 38.0002 275.5 37.0308 275.5 35.4798C275.5 34.1226 275.5 33.3471 275.306 32.7655C275.112 32.1839 274.918 31.99 274.336 31.99C273.755 31.99 273.561 32.1839 273.367 32.7655C273.173 33.3471 273.173 34.1226 273.173 35.4798C273.173 37.0308 273.173 38.0002 273.367 38.5818C273.561 39.3573 273.755 39.5512 274.336 39.5512Z" fill="#D6D6D6"/>
<path d="M282.284 30.6328V31.6022C282.866 30.8267 283.448 30.439 284.417 30.439C285.968 30.439 286.744 31.2145 286.744 32.9594V41.2961H284.805V33.541C284.805 32.5716 284.417 31.99 283.642 31.99C283.254 31.99 282.866 32.1839 282.672 32.3777C282.478 32.5716 282.284 32.9594 282.284 33.541V41.2961H280.346V30.6328H282.284Z" fill="#D6D6D6"/>
<path d="M296.439 41.2959H294.306L291.398 35.6735V41.2959H289.459V25.2041H291.398V35.0918L293.918 30.6327H296.051L293.337 35.4796L296.439 41.2959Z" fill="#D6D6D6"/>
<path d="M310.59 41.2963H309.039L305.161 30.6331V41.2963H303.223V25.7861H304.968L308.845 36.4494V25.7861H310.59V41.2963Z" fill="#D6D6D6"/>
<path d="M319.898 41.2961H317.959V39.939C317.378 40.9083 316.796 41.2961 316.02 41.2961C315.245 41.2961 314.663 40.9083 314.276 40.3267C313.694 39.7451 313.5 38.1941 313.5 36.0614C313.5 34.1226 313.694 32.5716 314.082 31.7961C314.469 30.8267 315.245 30.439 316.214 30.439C316.602 30.439 316.99 30.6328 317.378 30.8267C317.571 31.0206 317.959 31.4083 318.153 31.7961V30.6328H320.092V41.2961H319.898ZM316.602 39.5512C317.184 39.5512 317.378 39.1634 317.571 38.5818C317.765 38.0002 317.765 37.0308 317.765 35.4798C317.765 34.1226 317.765 33.3471 317.571 32.7655C317.378 32.1839 317.184 31.99 316.602 31.99C316.02 31.99 315.827 32.1839 315.633 32.7655C315.439 33.3471 315.439 34.1226 315.439 35.4798C315.439 37.0308 315.439 38.0002 315.633 38.5818C315.633 39.3573 316.02 39.5512 316.602 39.5512Z" fill="#D6D6D6"/>
<path d="M333.468 41.2961H331.53V33.541C331.53 32.5716 331.142 31.99 330.366 31.99C329.591 31.99 329.009 32.5716 329.009 33.9288V41.2961H327.071V33.3471C327.071 32.9594 326.877 32.5716 326.683 32.3777C326.489 32.1839 326.101 31.99 325.907 31.99C324.938 31.99 324.55 32.5716 324.55 33.7349V41.2961H322.611V30.6328H324.55V31.6022C325.132 30.8267 325.907 30.439 326.683 30.439C327.652 30.439 328.234 30.8267 328.815 31.7961C329.397 31.0206 330.366 30.439 331.142 30.439C332.693 30.439 333.468 31.2145 333.468 32.9594V41.2961Z" fill="#D6D6D6"/>
<path d="M342.775 36.2553H338.316C338.316 37.4186 338.316 38.1941 338.51 38.7757C338.704 39.3573 339.092 39.7451 339.673 39.7451C340.061 39.7451 340.449 39.5512 340.643 39.1635C340.837 38.7757 340.837 38.1941 340.837 37.6124H342.582C342.582 40.1328 341.418 41.2961 339.48 41.2961C337.347 41.2961 336.184 39.5512 336.184 36.0614C336.184 32.1839 337.347 30.439 339.673 30.439C340.449 30.439 341.224 30.8267 342 31.4084C342.582 31.99 342.969 33.3471 342.969 35.4798V36.2553H342.775ZM340.643 34.7043C340.643 33.7349 340.643 32.9594 340.449 32.3777C340.255 31.99 340.061 31.6022 339.48 31.6022C338.898 31.6022 338.51 31.7961 338.51 32.3777C338.316 32.7655 338.316 33.541 338.316 34.7043H340.643Z" fill="#D6D6D6"/>
<path d="M43.8166 41.6833C43.0411 42.0711 42.4594 42.2649 41.6839 42.2649C40.3268 42.2649 39.1635 41.6833 38.0002 40.7139C37.0308 39.5507 36.4492 37.418 36.4492 33.9282C36.4492 30.2445 37.0308 27.7241 38.0002 26.367C38.9696 25.0099 40.3268 24.4282 41.6839 24.4282C42.2655 24.4282 42.8472 24.4282 43.6227 24.6221V26.7547C43.2349 26.5609 42.6533 26.5609 42.2656 26.5609C41.2962 26.5609 40.5206 26.9486 39.939 27.918C39.3574 28.8874 38.9696 30.6323 38.9696 33.3466C38.9696 34.8976 38.9696 36.2547 39.1635 37.2241C39.3574 38.1935 39.5513 38.7751 40.1329 39.3568C40.7145 39.9384 41.2962 40.1323 42.0717 40.1323C42.4594 40.1323 43.0411 39.9384 43.8166 39.7445V41.6833Z" fill="#D6D6D6"/>
<path d="M51.5701 31.9891C50.6007 31.9891 49.8252 32.1829 49.4375 32.5707C49.0497 32.9584 48.8558 33.734 48.8558 34.8972V42.0707H46.5293V30.2442H48.8558V31.9891C49.4375 30.6319 50.4068 30.0503 51.5701 30.0503H51.764V31.9891H51.5701Z" fill="#D6D6D6"/>
<path d="M60.6862 36.4482H55.6454C55.6454 37.8054 55.6454 38.7748 55.8393 39.3564C56.0332 39.938 56.4209 40.3258 57.1964 40.3258C57.7781 40.3258 57.9719 40.1319 58.1658 39.7442C58.3597 39.3564 58.3597 38.7748 58.3597 37.9993H60.2985C60.2985 40.7136 59.1352 42.2646 56.8087 42.2646C54.2883 42.2646 53.125 40.3258 53.125 36.4482C53.125 32.1829 54.4821 30.0503 57.0025 30.0503C57.9719 30.0503 58.7474 30.438 59.5229 31.2136C60.2985 31.9891 60.4923 33.5401 60.4923 35.8666V36.4482H60.6862ZM58.3597 34.7033C58.3597 33.5401 58.3597 32.7646 58.1658 32.1829C57.9719 31.6013 57.5842 31.4074 57.1964 31.4074C56.6148 31.4074 56.227 31.6013 56.0332 32.1829C55.8393 32.7646 55.8393 33.5401 55.8393 34.7033H58.3597Z" fill="#D6D6D6"/>
<path d="M68.6326 24.04H70.7653V42.0707H68.6326V40.5196C68.051 41.6829 67.2755 42.2645 66.3061 42.2645C65.7244 42.2645 65.1428 42.0707 64.7551 41.6829C64.1734 41.2951 63.9795 40.7135 63.7857 40.1319C63.5918 39.3564 63.5918 38.1931 63.5918 36.6421C63.5918 34.7033 63.5918 33.54 63.7857 32.5707C63.9795 31.7951 64.1734 31.2135 64.7551 30.6319C65.1428 30.2441 65.7244 30.0503 66.5 30.0503C67.4693 30.0503 68.2449 30.6319 68.6326 31.6013V24.04ZM68.6326 35.8666C68.6326 34.3156 68.6326 33.3462 68.4387 32.7645C68.2449 32.1829 67.8571 31.7951 67.2755 31.7951C66.6938 31.7951 66.3061 32.1829 66.1122 32.7645C65.9183 33.3462 65.7244 34.5094 65.7244 35.8666C65.7244 37.4176 65.9183 38.5809 66.1122 39.1625C66.3061 39.7441 66.6938 40.1319 67.2755 40.1319C67.8571 40.1319 68.2449 39.7441 68.4387 39.1625C68.4387 38.5809 68.6326 37.4176 68.6326 35.8666Z" fill="#D6D6D6"/>
<path d="M73.6738 26.5607C73.6738 26.173 73.8677 25.9791 74.0616 25.7852C74.2555 25.5913 74.6432 25.3975 74.8371 25.3975C75.2248 25.3975 75.4187 25.5913 75.6126 25.7852C75.8065 25.9791 76.0004 26.3668 76.0004 26.5607C76.0004 26.9485 75.8065 27.1424 75.6126 27.3362C75.4187 27.5301 75.031 27.724 74.8371 27.724C74.4493 27.724 74.2555 27.5301 74.0616 27.3362C73.8677 27.1424 73.6738 26.9485 73.6738 26.5607ZM73.8677 30.2444H76.0004V42.0709H73.8677V30.2444Z" fill="#D6D6D6"/>
<path d="M83.1736 31.9891H81.8165V42.0707H79.4899V31.9891H78.1328V30.2442H79.4899V26.9482H81.8165V30.2442H83.1736V31.9891Z" fill="#D6D6D6"/>
<path d="M97.9084 41.6833C97.1329 42.0711 96.5512 42.2649 95.7757 42.2649C94.4186 42.2649 93.2553 41.6833 92.092 40.7139C91.1227 39.5507 90.541 37.418 90.541 33.9282C90.541 30.2445 91.1227 27.7241 92.092 26.367C93.0614 25.0099 94.4186 24.4282 95.7757 24.4282C96.3573 24.4282 96.939 24.4282 97.7145 24.6221V26.7547C97.3267 26.5609 96.7451 26.5609 96.3573 26.5609C95.388 26.5609 94.6124 26.9486 94.0308 27.918C93.4492 28.8874 93.0614 30.6323 93.0614 33.3466C93.0614 34.8976 93.0614 36.2547 93.2553 37.2241C93.4492 38.1935 93.6431 38.7751 94.2247 39.3568C94.8063 39.9384 95.388 40.1323 96.1635 40.1323C96.5512 40.1323 97.1329 39.9384 97.9084 39.7445V41.6833Z" fill="#D6D6D6"/>
<path d="M107.797 42.0712H105.664V40.7141C105.083 41.8773 104.307 42.2651 103.532 42.2651C102.756 42.2651 102.175 41.8773 101.399 41.1018C100.817 40.3263 100.43 38.7753 100.43 36.2549C100.43 33.9284 100.624 32.3773 101.011 31.408C101.399 30.4386 102.175 29.8569 103.338 29.8569C103.919 29.8569 104.307 30.0508 104.501 30.2447C104.889 30.4386 105.083 30.8263 105.47 31.408V30.0508H107.797V42.0712ZM104.113 40.3263C104.695 40.3263 105.083 39.9386 105.277 39.3569C105.471 38.5814 105.47 37.612 105.47 35.8671C105.47 34.51 105.471 33.3467 105.277 32.7651C105.083 32.1835 104.695 31.7957 104.113 31.7957C103.532 31.7957 103.144 31.9896 102.95 32.5712C102.756 33.1529 102.562 34.1222 102.562 35.4794C102.562 37.2243 102.562 38.3876 102.756 38.9692C103.144 39.9386 103.532 40.3263 104.113 40.3263Z" fill="#D6D6D6"/>
<path d="M115.748 31.9891C114.778 31.9891 114.003 32.1829 113.615 32.5707C113.227 32.9584 113.034 33.734 113.034 34.8972V42.0707H110.707V30.2442H113.034V31.9891C113.615 30.6319 114.585 30.0503 115.748 30.0503H115.942V31.9891H115.748Z" fill="#D6D6D6"/>
<path d="M122.724 24.04H124.857V42.0707H122.724V40.5196C122.143 41.6829 121.367 42.2645 120.398 42.2645C119.816 42.2645 119.235 42.0707 118.847 41.6829C118.265 41.2951 118.071 40.7135 117.877 40.1319C117.684 39.3564 117.684 38.1931 117.684 36.6421C117.684 34.7033 117.684 33.54 117.877 32.5707C118.071 31.7951 118.265 31.2135 118.847 30.6319C119.235 30.2441 119.816 30.0503 120.592 30.0503C121.561 30.0503 122.337 30.6319 122.724 31.6013V24.04ZM122.724 35.8666C122.724 34.3156 122.724 33.3462 122.531 32.7645C122.337 32.1829 121.949 31.7951 121.367 31.7951C120.786 31.7951 120.398 32.1829 120.204 32.7645C120.01 33.3462 119.816 34.5094 119.816 35.8666C119.816 37.4176 120.01 38.5809 120.204 39.1625C120.398 39.7441 120.786 40.1319 121.367 40.1319C121.949 40.1319 122.337 39.7441 122.531 39.1625C122.531 38.5809 122.724 37.4176 122.724 35.8666Z" fill="#D6D6D6"/>
<path d="M44.7852 156.653C44.7852 158.398 44.5913 159.755 44.0097 160.531C43.428 161.306 42.6525 161.888 41.4893 161.888C40.326 161.888 39.5505 161.5 38.9689 160.531C38.3872 159.561 38.1934 158.398 38.1934 156.653C38.1934 154.908 38.3872 153.551 38.9689 152.776C39.5505 152 40.326 151.418 41.4893 151.418C42.6525 151.418 43.428 151.806 44.0097 152.776C44.5913 153.745 44.7852 155.102 44.7852 156.653ZM39.5505 156.653C39.5505 158.01 39.7444 158.98 39.9383 159.561C40.1321 160.143 40.7138 160.531 41.2954 160.531C41.877 160.531 42.4587 160.143 42.6525 159.561C42.8464 158.98 43.0403 158.01 43.0403 156.653C43.0403 155.296 42.8464 154.327 42.6525 153.745C42.4587 153.163 41.877 152.776 41.2954 152.776C40.7138 152.776 40.1321 153.163 39.9383 153.745C39.7444 154.327 39.5505 155.296 39.5505 156.653Z" fill="#D6D6D6"/>
<path d="M50.7965 161.694H49.2455V155.102C49.2455 154.327 49.2455 153.745 49.2455 153.163C49.0517 153.357 49.0517 153.357 48.8578 153.551C48.6639 153.745 48.2761 154.133 47.3068 154.908L46.5312 153.939L49.4394 151.612H50.7965V161.694Z" fill="#D6D6D6"/>
<path d="M60.8775 161.694H54.0918V160.531L56.6122 158.011C57.3877 157.235 57.9693 156.654 58.1632 156.266C58.3571 155.878 58.551 155.684 58.7449 155.297C58.9387 154.909 58.9387 154.715 58.9387 154.327C58.9387 153.939 58.7448 153.552 58.551 153.164C58.3571 152.97 57.9693 152.776 57.3877 152.776C57 152.776 56.6122 152.776 56.2244 152.97C55.8367 153.164 55.4489 153.358 55.0612 153.746L54.0918 152.582C54.6734 152.194 55.2551 151.807 55.6428 151.613C56.2244 151.419 56.8061 151.225 57.3877 151.225C58.3571 151.225 59.1326 151.419 59.7142 152.001C60.2959 152.582 60.4897 153.164 60.4897 153.939C60.4897 154.327 60.4897 154.909 60.2959 155.297C60.102 155.684 59.9081 156.072 59.5204 156.654C59.1326 157.041 58.551 157.623 57.7755 158.399L56.0306 160.143H60.8775V161.694Z" fill="#D6D6D6"/>
<path d="M68.6309 153.939C68.6309 154.521 68.437 155.102 68.0493 155.49C67.6615 155.878 67.0799 156.265 66.4982 156.265C67.2738 156.459 67.8554 156.653 68.2431 157.041C68.6309 157.429 68.8248 158.01 68.8248 158.592C68.8248 159.561 68.437 160.337 67.8554 160.918C67.0799 161.5 66.1105 161.694 64.9472 161.694C63.784 161.694 62.8146 161.5 62.0391 161.112V159.755C62.4268 159.949 63.0084 160.143 63.3962 160.337C63.784 160.531 64.3656 160.531 64.7533 160.531C65.5289 160.531 66.1105 160.337 66.4982 160.143C66.886 159.949 67.0799 159.367 67.0799 158.786C67.0799 158.204 66.886 157.816 66.4982 157.623C66.1105 157.429 65.335 157.235 64.5595 157.235H63.5901V155.878H64.5595C66.1105 155.878 66.886 155.296 66.886 154.133C66.886 153.745 66.6921 153.357 66.4982 153.163C66.3044 152.969 65.7227 152.776 65.335 152.776C64.9472 152.776 64.5595 152.776 64.1717 152.969C63.784 153.163 63.3962 153.357 63.0084 153.551L62.2329 152.388C63.2023 151.612 64.1717 151.418 65.5289 151.418C66.4982 151.418 67.2738 151.612 67.8554 152C68.437 152.582 68.6309 153.163 68.6309 153.939Z" fill="#D6D6D6"/>
<path d="M282.281 164.214H289.261C289.455 164.214 289.843 164.408 290.037 164.602L290.424 164.99C290.618 165.184 290.812 165.571 290.812 165.959V175.072C290.812 175.459 290.618 175.653 290.424 176.041L290.037 176.429C289.843 176.623 289.455 176.816 289.261 176.816H282.281C282.088 176.816 281.7 176.623 281.506 176.429L281.118 176.041C280.924 175.847 280.73 175.459 280.73 175.072V165.959C280.73 165.571 280.924 165.378 281.118 164.99L281.506 164.602C281.7 164.408 281.894 164.214 282.281 164.214ZM289.455 174.684V166.153C289.455 165.959 289.455 165.765 289.455 165.765C289.455 165.765 289.455 165.571 289.261 165.571C289.067 165.571 289.067 165.378 289.067 165.378C289.067 165.378 288.873 165.378 288.679 165.378H283.057C282.863 165.378 282.669 165.378 282.669 165.378C282.669 165.378 282.475 165.378 282.475 165.571C282.281 165.571 282.281 165.765 282.281 165.765C282.281 165.765 282.281 165.959 282.281 166.153V174.684C282.281 174.878 282.281 175.072 282.281 175.072C282.281 175.072 282.281 175.265 282.475 175.265C282.669 175.265 282.669 175.459 282.669 175.459C282.669 175.459 282.863 175.459 283.057 175.459H288.679C288.873 175.459 289.067 175.459 289.067 175.459C289.067 175.459 289.261 175.459 289.261 175.265C289.455 175.265 289.455 175.072 289.455 175.072C289.455 175.072 289.455 174.878 289.455 174.684Z" fill="#D6D6D6"/>
<path d="M294.303 167.897L293.527 167.122L296.048 164.408H298.18V176.816H296.823V165.959C296.823 165.765 296.823 165.571 296.823 165.571L294.303 167.897Z" fill="#D6D6D6"/>
<path d="M307.874 164.214H309.232L299.925 178.174H298.568L307.874 164.214Z" fill="#D6D6D6"/>
<path d="M310.393 171.194L311.169 170.418C311.362 170.225 311.556 170.225 311.75 170.225C311.556 170.225 311.362 170.225 311.169 170.031L310.587 169.643C310.393 169.449 310.393 169.255 310.393 169.061V165.959C310.393 165.571 310.587 165.378 310.781 164.99L311.169 164.602C311.362 164.408 311.75 164.214 311.944 164.214H317.373C317.567 164.214 317.954 164.408 318.148 164.602L318.536 164.99C318.73 165.184 318.924 165.571 318.924 165.959V169.061C318.924 169.255 318.924 169.449 318.73 169.643L318.148 170.031C317.954 170.225 317.76 170.225 317.567 170.225C317.76 170.225 317.954 170.225 318.148 170.418L318.924 171.194C319.118 171.388 319.118 171.582 319.118 171.969V175.072C319.118 175.459 318.924 175.653 318.73 176.041C318.73 176.041 318.536 176.235 318.342 176.429C318.148 176.623 317.76 176.816 317.567 176.816H311.75C311.556 176.816 311.169 176.623 310.975 176.429C310.781 176.235 310.587 176.235 310.587 176.041C310.393 175.847 310.199 175.459 310.199 175.072V171.969C310.199 171.582 310.199 171.388 310.393 171.194ZM316.597 171H313.107C312.914 171 312.72 171 312.72 171C312.72 171 312.526 171 312.332 171.194L311.944 171.582C311.75 171.776 311.75 171.776 311.75 171.776C311.75 171.776 311.75 171.969 311.75 172.163V174.684C311.75 174.878 311.75 175.072 311.75 175.072C311.75 175.072 311.75 175.265 311.944 175.265C312.138 175.265 312.138 175.459 312.138 175.459C312.138 175.459 312.332 175.459 312.526 175.459H316.985C317.179 175.459 317.373 175.459 317.373 175.459C317.373 175.459 317.567 175.459 317.567 175.265C317.76 175.265 317.76 175.072 317.76 175.072C317.76 175.072 317.76 174.878 317.76 174.684V172.163C317.76 171.969 317.76 171.776 317.76 171.776L317.567 171.582L317.179 171.194C316.985 171 316.985 171 316.791 171C316.791 171 316.791 171 316.597 171ZM316.791 165.571H312.72C312.526 165.571 312.332 165.571 312.332 165.571C312.332 165.571 312.138 165.572 312.138 165.765C311.944 165.765 311.944 165.959 311.944 165.959C311.944 165.959 311.944 166.153 311.944 166.347V168.674C311.944 168.867 311.944 169.061 311.944 169.061L312.138 169.255L312.526 169.643C312.72 169.643 312.72 169.837 312.72 169.837C312.72 169.837 312.914 169.837 313.107 169.837H316.016C316.209 169.837 316.403 169.837 316.403 169.837C316.403 169.837 316.597 169.837 316.597 169.643L316.985 169.255C317.179 169.061 317.179 169.061 317.179 169.061C317.179 169.061 317.179 168.867 317.179 168.674V166.347C317.179 166.153 317.179 165.959 317.179 165.959C317.179 165.959 317.179 165.765 316.985 165.765C316.791 165.765 316.791 165.571 316.791 165.571C316.985 165.571 317.179 165.571 316.791 165.571Z" fill="#D6D6D6"/>
<path d="M324.354 164.214H331.333C331.527 164.214 331.915 164.408 332.109 164.602L332.497 164.99C332.69 165.184 332.884 165.571 332.884 165.959V175.072C332.884 175.459 332.69 175.653 332.497 176.041L332.109 176.429C331.915 176.623 331.527 176.816 331.333 176.816H324.354C324.16 176.816 323.772 176.623 323.578 176.429L323.19 176.041C322.997 175.847 322.803 175.459 322.803 175.072V165.959C322.803 165.571 322.997 165.378 323.19 164.99L323.578 164.602C323.772 164.408 323.966 164.214 324.354 164.214ZM331.527 174.684V166.153C331.527 165.959 331.527 165.765 331.527 165.765C331.527 165.765 331.527 165.571 331.333 165.571C331.139 165.571 331.139 165.378 331.139 165.378C331.139 165.378 330.946 165.378 330.752 165.378H325.129C324.935 165.378 324.742 165.378 324.742 165.378C324.742 165.378 324.548 165.378 324.548 165.571C324.354 165.571 324.354 165.765 324.354 165.765C324.354 165.765 324.354 165.959 324.354 166.153V174.684C324.354 174.878 324.354 175.072 324.354 175.072C324.354 175.072 324.354 175.265 324.548 175.265C324.741 175.265 324.742 175.459 324.742 175.459C324.742 175.459 324.935 175.459 325.129 175.459H330.752C330.946 175.459 331.139 175.459 331.139 175.459C331.139 175.459 331.333 175.459 331.333 175.265C331.527 175.265 331.527 175.072 331.527 175.072C331.527 175.072 331.527 174.878 331.527 174.684Z" fill="#D6D6D6"/>
<path d="M248.742 167.509C248.936 167.509 248.936 167.509 248.742 167.509L250.293 162.856H250.875L249.13 168.091H248.354L246.609 162.856H247.191L248.742 167.509Z" fill="#D6D6D6"/>
<path d="M251.457 168.091L253.202 162.856H253.977L255.722 168.091H255.141L254.753 166.928H252.233L251.845 168.091H251.457ZM253.59 163.244V163.438L252.62 166.346H254.753L253.784 163.438C253.59 163.438 253.59 163.438 253.59 163.244Z" fill="#D6D6D6"/>
<path d="M260.18 167.509V168.091H257.078V162.856H257.66V167.509H260.18Z" fill="#D6D6D6"/>
<path d="M260.957 162.856H261.539V168.091H260.957V162.856Z" fill="#D6D6D6"/>
<path d="M262.895 168.091V162.856H265.609C265.803 162.856 265.803 162.856 265.997 163.05L266.772 163.632C266.966 163.826 266.966 163.826 266.966 164.02V167.122C266.966 167.316 266.966 167.316 266.772 167.509L265.997 168.091C265.803 168.285 265.803 168.285 265.609 168.285H262.895V168.091ZM266.384 166.734V164.02C266.384 163.826 266.384 163.826 266.19 163.632L265.803 163.244C265.609 163.05 265.609 163.05 265.415 163.05H263.476V167.122H265.415C265.609 167.122 265.609 167.122 265.803 166.928L266.19 166.54C266.19 166.928 266.384 166.928 266.384 166.734Z" fill="#D6D6D6"/>
<path d="M247.771 171.775H251.649V172.357H250.098V177.01H249.516V172.357H247.965V171.775H247.771Z" fill="#D6D6D6"/>
<path d="M255.722 171.775H256.303V177.01H255.722V174.683H253.007V177.01H252.426V171.775H253.007V174.101H255.722V171.775Z" fill="#D6D6D6"/>
<path d="M257.855 171.775H260.57C260.764 171.775 260.764 171.775 260.958 171.969L261.151 172.163C261.345 172.357 261.345 172.357 261.345 172.55V174.295C261.345 174.489 261.345 174.489 261.151 174.683L260.958 174.877C260.764 174.877 260.764 175.071 260.57 175.071H260.182L260.958 176.234C260.958 176.234 260.958 176.428 261.151 176.428C261.151 176.428 261.151 176.428 261.345 176.622C261.345 176.622 261.539 176.622 261.539 176.816V177.01V177.203H261.345H261.151C261.151 177.203 261.151 177.203 260.958 177.203H260.764C260.57 177.203 260.57 177.01 260.57 177.01L259.6 175.459H258.631V177.591H258.049V171.775H257.855ZM258.437 172.163V174.295H260.182H260.376C260.376 174.295 260.376 174.295 260.57 174.295C260.57 174.295 260.57 174.295 260.57 174.101V172.55V172.357C260.57 172.357 260.57 172.357 260.376 172.357C260.376 172.357 260.376 172.357 260.182 172.357H258.437V172.163Z" fill="#D6D6D6"/>
<path d="M266.191 171.775H266.773V176.234C266.773 176.428 266.773 176.428 266.579 176.622L266.385 176.816C266.191 177.01 266.191 177.01 265.997 177.01H263.477C263.283 177.01 263.283 177.01 263.089 176.816L262.895 176.622C262.701 176.428 262.701 176.428 262.701 176.234V171.775H263.283V176.04V176.234C263.283 176.234 263.283 176.234 263.477 176.234C263.477 176.234 263.477 176.234 263.671 176.234H265.609H265.803C265.803 176.234 265.803 176.234 265.997 176.234C265.997 176.234 265.997 176.234 265.997 176.04V171.775H266.191Z" fill="#D6D6D6"/>
<path fill-rule="evenodd" clip-rule="evenodd" d="M270.455 166.734V173.132L275.108 169.836L270.455 166.734Z" fill="#D6D6D6"/>
<defs>
<linearGradient id="paint0_linear_3364_12772" x1="119.469" y1="298.044" x2="251.736" y2="-1.28374e-05" gradientUnits="userSpaceOnUse">
<stop stop-color="#12499C"/>
<stop offset="1" stop-color="#323943"/>
</linearGradient>
<linearGradient id="paint1_linear_3364_12772" x1="377.066" y1="113.557" x2="-194.112" y2="132.597" gradientUnits="userSpaceOnUse">
<stop stop-color="#083478"/>
<stop offset="0.258" stop-color="#2C5187"/>
<stop offset="0.38" stop-color="#43608C"/>
<stop offset="0.4735" stop-color="#425A7D"/>
<stop offset="0.5526" stop-color="#31316D"/>
<stop offset="0.6224" stop-color="#414141"/>
<stop offset="0.6858" stop-color="#5E5E5E"/>
<stop offset="0.7443" stop-color="#818181"/>
<stop offset="0.799" stop-color="#AAAAAA"/>
<stop offset="0.8486" stop-color="#D7D7D7"/>
<stop offset="0.8871" stop-color="white"/>
</linearGradient>
<linearGradient id="paint2_linear_3364_12772" x1="61.5493" y1="51.4221" x2="61.5493" y2="152.474" gradientUnits="userSpaceOnUse">
<stop stop-color="#FFCA3F"/>
<stop offset="0.0969388" stop-color="#CA7C22"/>
<stop offset="0.1888" stop-color="#FDDB7A"/>
<stop offset="0.4201" stop-color="#FFAD45"/>
<stop offset="0.5538" stop-color="#A95F0D"/>
<stop offset="0.6562" stop-color="#FFAD45"/>
<stop offset="0.7903" stop-color="#FFFF9B"/>
<stop offset="0.868" stop-color="#FFED7C"/>
<stop offset="1" stop-color="#FFCA3F"/>
</linearGradient>
<linearGradient id="paint3_linear_3364_12772" x1="61.5493" y1="26.9294" x2="61.5493" y2="153.453" gradientUnits="userSpaceOnUse">
<stop stop-color="#FFCA3F"/>
<stop offset="0.0969388" stop-color="#CA7C22"/>
<stop offset="0.1888" stop-color="#FDDB7A"/>
<stop offset="0.4201" stop-color="#FFAD45"/>
<stop offset="0.5538" stop-color="#A95F0D"/>
<stop offset="0.6562" stop-color="#FFAD45"/>
<stop offset="0.7903" stop-color="#FFFF9B"/>
<stop offset="0.868" stop-color="#FFED7C"/>
<stop offset="1" stop-color="#FFCA3F"/>
</linearGradient>
</defs>
</svg>
