<svg height="512pt" viewBox="0 0 512 512.00061" width="512pt" xmlns="http://www.w3.org/2000/svg"><path d="m204.972656 217.789062c-30.425781.042969-56.640625 21.445313-62.773437 51.242188h125.554687c-6.132812-29.800781-32.351562-51.203125-62.78125-51.242188zm0 0"/><path d="m243.410156 153.738281c0 21.222657-17.207031 38.429688-38.429687 38.429688-21.226563 0-38.433594-17.207031-38.433594-38.429688 0-21.226562 17.207031-38.433593 38.433594-38.433593 21.222656 0 38.429687 17.207031 38.429687 38.433593zm0 0"/><path d="m501.171875 446.828125-108.449219-108.449219c-14.972656 21.003906-33.339844 39.371094-54.347656 54.34375l108.453125 108.453125c15.246094 14.765625 39.578125 14.378907 54.34375-.871093 14.4375-14.902344 14.4375-38.574219 0-53.476563zm0 0"/><path d="m409.945312 204.976562c.003907-113.203124-91.761718-204.97265575-204.964843-204.976562s-204.97656275 91.761719-204.980469 204.964844 91.761719 204.976562 204.964844 204.980468h.007812c113.148438-.128906 204.84375-91.820312 204.972656-204.96875zm-128.109374 89.671876h-153.726563c-7.070313.003906-12.808594-5.722657-12.8125-12.796876 0-.003906 0-.007812 0-.015624.121094-33.457032 18.90625-64.050782 48.695313-79.289063-27.1875-22.636719-30.878907-63.023437-8.246094-90.210937 22.632812-27.1875 63.023437-30.878907 90.210937-8.246094 27.1875 22.632812 30.878907 63.023437 8.242188 90.210937-2.492188 2.992188-5.25 5.753907-8.242188 8.246094 29.785157 15.238281 48.574219 45.835937 48.691407 79.296875.003906 7.070312-5.726563 12.804688-12.796876 12.804688-.003906 0-.011718 0-.015624 0zm0 0"/></svg>