<svg id="Capa_1" enable-background="new 0 0 497 497" height="512" viewBox="0 0 497 497" width="512" xmlns="http://www.w3.org/2000/svg"><g><path d="m248.5 255.475-15 15.784v193.743c0 10.321 3.115 20.32 8.825 28.741 2.944 4.342 9.406 4.342 12.351 0 5.71-8.421 8.825-18.42 8.825-28.741v-193.743z" fill="#acd5df"/><path d="m233.5 212v59.259c4.935.487 9.938 0 15 0s10.065.487 15 0v-59.259z" fill="#93b7c0"/><path d="m248.5 0v242c66.826 0 121-54.174 121-121s-54.174-121-121-121z" fill="#cc3245"/><path d="m339.5 121c0-66.826-40.742-121-91-121-66.826 0-121 54.174-121 121s54.174 121 121 121c50.258 0 91-54.174 91-121z" fill="#ff3e3a"/></g></svg>