<?xml version="1.0" encoding="UTF-8"?>
<svg xmlns="http://www.w3.org/2000/svg" xmlns:xlink="http://www.w3.org/1999/xlink" width="512" height="512" viewBox="0 0 56 56" version="1.1"><!-- Generator: Sketch 51.3 (57544) - http://www.bohemiancoding.com/sketch --><title>029 - Peice of the puzzle</title><desc>Created with Sketch.</desc><defs/><g id="Page-1" stroke="none" stroke-width="1" fill="none" fill-rule="evenodd"><g id="029---Peice-of-the-puzzle" fill="#000000" fill-rule="nonzero"><rect id="Rectangle-path" x="0" y="33" width="7" height="23" rx="1"/><path d="M55.594,40.1 C55.1353064,39.5490973 54.3837007,39.3393005 53.706,39.573 L35.2,45.744 C34.8599465,45.8521743 34.5092763,45.9235823 34.154,45.957 C34.1148568,45.9671629 34.0751111,45.9748449 34.035,45.98 C34.019,45.98 34.003,45.971 33.986,45.97 C33.863,45.979 33.742,46 33.618,46 L24.725,46 C23.1451922,45.9984804 21.6005346,46.4662632 20.287,47.344 L19.555,47.832 C19.0954991,48.138518 18.474518,48.0145009 18.168,47.555 C17.861482,47.0954991 17.9854991,46.474518 18.445,46.168 L19.178,45.68 C20.8197376,44.5828413 22.7503972,43.9981093 24.725,44 L30.8,44 C31.4360881,43.1502928 31.4949744,42.000232 30.949,41.09 L30.859,40.941 C30.1336966,39.740254 28.8347954,39.0045764 27.432,39 L22.2,39 C21.966,39 21.733,38.986 21.5,38.97 C19.4473375,38.8261641 17.4866315,38.0628731 15.877,36.781 C14.4349898,35.6298771 12.6451215,35.0019954 10.8,35 L9,35 L9,55 L33.3,55 C34.4005669,55.0000007 35.4799324,54.6972941 36.42,54.125 L55.165,42.715 C55.584108,42.459851 55.8759239,42.0395221 55.9684859,41.5576665 C56.0610479,41.0758109 55.945741,40.5772757 55.651,40.185 C55.631,40.157 55.611,40.129 55.594,40.1 Z" id="Shape"/><path d="M33.6,44 L54.59,23 L47.297,15.707 C46.5475166,14.9987001 45.3676071,15.0254554 44.651,15.767 L44.557,15.861 C44.4899416,15.9535646 44.464568,16.0699204 44.487,16.182 C44.8246676,18.8884546 43.5364071,21.5398335 41.2,22.947 C39.0725011,24.2562022 36.3942096,24.2766178 34.247,23 C32.5126924,21.9505832 31.358467,20.1607777 31.118,18.148 C30.8735857,16.0398732 31.6148975,13.9368146 33.1272313,12.4479278 C34.6395651,10.9590411 36.7539492,10.250678 38.858,10.528 C38.9514646,10.5428189 39.0469132,10.5185952 39.122,10.461 L39.235,10.35 C39.9772056,9.63132894 40.0017477,8.44884745 39.29,7.7 L32,0.414 L24.457,7.948 C23.7335132,8.67847906 22.7529799,9.09696434 21.725,9.114 L21.664,9.114 C20.6582233,9.11853441 19.6925793,8.71981458 18.983,8.007 L18.91,7.942 C18.3940704,7.41785966 18.1599136,6.67859338 18.28,5.953 C18.5416976,4.53455011 18.1110164,3.07635299 17.1206556,2.02770086 C16.1302949,0.979048721 14.6990839,0.465764984 13.268,0.646 C11.7499927,0.82931111 10.3990003,1.69633299 9.6,3 C8.66739425,4.47282642 8.62659242,6.3408574 9.494,7.853 C10.4575102,9.48374179 12.3262829,10.3521247 14.194,10.037 C14.9205536,9.90307723 15.6668033,10.1314297 16.194,10.649 L16.273,10.728 C16.9971572,11.451605 17.3944836,12.4395029 17.373,13.463 C17.3605584,14.4914307 16.9455497,15.4740249 16.217,16.2 L8.675,23.73 L21.932,36.988 C22.022,36.988 22.111,37 22.201,37 L27.432,37 C29.5378651,37.006496 31.4879448,38.1105936 32.577,39.913 L32.667,40.062 C33.3778626,41.2516152 33.5145238,42.6983137 33.039,44 L33.6,44 Z" id="Shape"/></g></g></svg>
