<svg id="Solid" enable-background="new 0 0 64 64" height="512" viewBox="0 0 64 64" width="512" xmlns="http://www.w3.org/2000/svg"><path d="m26.128 36.636-.091-5.464-4.912 4.297z"/><path d="m19 62.399 2.957-3.696-2.63-21.6-.3-.07-.358.102-2.626 21.568z"/><path d="m16.926 35.514-5.015-4.389-.252 5.933 5.244-1.498c.007-.016.015-.031.023-.046z"/><path d="m7 48h2v16h8.719l-3.5-4.375c-.168-.21-.244-.479-.212-.746l2.574-21.147-5.707 1.631c-.09.025-.183.038-.275.038-.222 0-.44-.074-.619-.215-.252-.198-.394-.507-.38-.828l.32-7.51-5.817 2.644c-2.499 1.135-4.103 3.627-4.103 6.372v24.136h7z"/><path d="m33.896 33.491-5.865-2.666.119 7.059c.005.308-.132.601-.372.795-.18.145-.402.222-.628.222-.076 0-.152-.009-.227-.026l-5.522-1.288 2.592 21.293c.033.267-.044.536-.212.746l-3.5 4.374h8.719v-16h2v16h7v-24.136c0-2.745-1.604-5.237-4.104-6.373zm-5.896 12.509h-4v-2h4z"/><path d="m19 11c1.103 0 2-.897 2-2h2c0 2.206-1.794 4-4 4h-8v8c0 2.169 1.389 4.02 3.324 4.711l-2.05 3.075 6.726 5.885 6.726-5.885-2.05-3.075c1.935-.691 3.324-2.542 3.324-4.711v-12c0-2.757-2.243-5-5-5h-6c-2.757 0-5 2.243-5 5v2z"/><path d="m63 25h-5.524c-.323-1.52-.791-2.988-1.388-4.387-.541-1.275-1.194-2.501-1.957-3.673l3.911-3.91c.188-.188.293-.441.293-.707s-.105-.52-.293-.707l-5.657-5.657c-.375-.375-1.039-.375-1.414 0l-3.91 3.911c-1.771-1.153-3.66-2.055-5.649-2.698-.001 0-.002-.001-.002-.001-.033-.011-.067-.021-.1-.032-.755-.243-1.526-.448-2.31-.615v-5.524c0-.553-.447-1-1-1h-8c-.552 0-1 .447-1 1v11.707c1.588-.46 3.266-.707 5-.707 8.738 0 16.191 6.234 17.721 14.824l-1.969.352c-1.359-7.635-7.984-13.176-15.752-13.176-1.745 0-3.426.281-5 .8v4.289c1.56-.716 3.26-1.089 5-1.089 2.335 0 4.598.671 6.544 1.94l-1.092 1.676c-3.095-2.019-7.264-2.111-10.461-.272-.098 2.005-1.043 3.791-2.484 5.007l1.514 2.271.829.378h11.15v2h-6.751l1.476.671c2.668 1.212 4.55 3.644 5.105 6.457 2.603-1.863 4.17-4.86 4.17-8.128 0-2.562-.969-5-2.728-6.863l1.455-1.373c2.111 2.236 3.273 5.161 3.273 8.236 0 4.323-2.283 8.251-6 10.395v4.437c1.529-.621 2.942-1.471 4.194-2.508.044-.037.089-.074.133-.111.013-.011.025-.021.038-.032 3.414-2.923 5.535-7.224 5.632-11.848 0-.015.001-.031.001-.046.001-.096.002-.191.002-.287 0-.404.243-.77.617-.924.374-.155.804-.069 1.09.217l3 3-1.414 1.414-1.436-1.436c-.577 4.562-2.869 8.598-6.207 11.439-1.548 1.323-3.331 2.395-5.297 3.137l-.002-.004c-.117.044-.234.087-.352.129v6.269c.983-.254 1.943-.569 2.873-.941.044-.018.088-.035.132-.053.026-.011.053-.021.079-.032 1.384-.566 2.713-1.262 3.976-2.083l3.91 3.911c.188.188.441.293.707.293s.52-.105.707-.293l5.657-5.657c.188-.188.293-.441.293-.707s-.105-.52-.293-.707l-3.911-3.91c.717-1.102 1.337-2.252 1.858-3.446.009-.021.019-.043.028-.064.02-.047.04-.094.06-.14.602-1.406 1.073-2.882 1.398-4.41h5.527c.553 0 1-.447 1-1v-8c0-.555-.447-1.002-1-1.002z"/></svg>