<svg clip-rule="evenodd" fill-rule="evenodd" height="512" image-rendering="optimizeQuality" shape-rendering="geometricPrecision" text-rendering="geometricPrecision" viewBox="0 0 512 512" width="512" xmlns="http://www.w3.org/2000/svg" xmlns:xlink="http://www.w3.org/1999/xlink" xmlns:xodm="http://www.corel.com/coreldraw/odm/2003"><linearGradient id="id0" gradientUnits="userSpaceOnUse" x1="67.83" x2="474.19" y1="82.42" y2="389.98"><stop offset="0" stop-color="#4a8cff"/><stop offset="1" stop-color="#23b7ec"/></linearGradient><g id="Layer_x0020_1"><g id="_1639424393248"><path d="m256 0c141.39 0 256 114.61 256 256s-114.61 256-256 256-256-114.61-256-256 114.61-256 256-256z" fill="url(#id0)"/><path d="m117.44 188.39v101.48c.1 22.95 18.84 41.41 41.69 41.32h147.93c4.21 0 7.59-3.38 7.59-7.49v-101.49c-.09-22.94-18.83-41.41-41.69-41.32h-147.93c-4.2 0-7.59 3.38-7.59 7.5zm206.63 39.58 61.07-44.61c5.3-4.39 9.42-3.29 9.42 4.66v136.04c0 9.05-5.03 7.96-9.42 4.67l-61.07-44.53z" fill="#fff" fill-rule="nonzero"/></g></g></svg>