<svg width="23" height="23" viewBox="0 0 23 23" fill="none" xmlns="http://www.w3.org/2000/svg">
<mask id="path-1-outside-1_396_18868" maskUnits="userSpaceOnUse" x="0" y="0" width="23" height="23" fill="black">
<rect fill="white" width="23" height="23"/>
<path d="M12.8767 22C13.1182 21.9999 13.3242 21.825 13.3633 21.5867L13.8434 19.4992C14.4149 19.3336 14.9668 19.1067 15.4896 18.8225L17.3127 19.9527L17.3128 19.9528C17.5089 20.0927 17.7774 20.0704 17.9479 19.9003L19.8678 17.9821H19.868C20.0373 17.8127 20.0604 17.5459 19.9227 17.3498L18.8188 15.5125C19.1078 14.9864 19.3391 14.4306 19.5088 13.8548L21.5837 13.3674C21.8213 13.3274 21.9953 13.1217 21.9953 12.8808V10.1663C21.9957 9.92679 21.8242 9.72176 21.5884 9.67969L19.5117 9.16003C19.3429 8.58413 19.1122 8.02826 18.8235 7.50215L19.9487 5.68769H19.9488C20.0887 5.49157 20.0664 5.22308 19.8962 5.05259L17.9774 3.13269V3.13254C17.8083 2.96337 17.5422 2.93979 17.3461 3.07659L15.5028 4.18639C14.9786 3.90034 14.4251 3.67158 13.8518 3.50401L13.3631 1.4126H13.3632C13.3237 1.17459 13.1177 1.00015 12.8765 1H10.1626C9.92297 0.999707 9.71763 1.17166 9.67601 1.40762L9.15268 3.51061H9.15253C8.58174 3.6808 8.03074 3.91178 7.50932 4.19974L5.64975 3.07457H5.6496C5.45348 2.93689 5.18676 2.96003 5.01731 3.12949L3.09843 5.05055V5.05041C2.92764 5.22163 2.90597 5.49128 3.04731 5.68739L4.2006 7.52206C3.91807 8.041 3.69194 8.58862 3.52598 9.15575L1.40762 9.6763V9.67616C1.17166 9.7179 0.9997 9.9231 1 10.1629V12.8797C1.00015 13.1214 1.17562 13.3274 1.41422 13.3663L3.52759 13.8511C3.69471 14.4175 3.92145 14.9644 4.20428 15.4829L3.07558 17.3464C2.9379 17.5425 2.96104 17.8093 3.1305 17.9787L5.0504 19.8976C5.22148 20.0685 5.49128 20.0902 5.68738 19.9489L7.51399 18.8042C8.03601 19.0911 8.58761 19.3209 9.15912 19.4895L9.6757 21.5914C9.71686 21.8279 9.9225 22.0004 10.1625 22L12.8767 22ZM12.4568 21.0131H10.5769L10.0853 19.0588C10.0517 18.8663 9.90753 18.712 9.71785 18.6651C9.0069 18.488 8.32657 18.2049 7.69983 17.8253C7.53066 17.7227 7.31681 17.7311 7.15614 17.8465L5.44877 18.9043L4.11958 17.5751L5.16185 15.8339H5.162C5.27419 15.6741 5.28166 15.4633 5.18118 15.296C4.80608 14.6713 4.52576 13.9944 4.34938 13.2874C4.30163 13.0962 4.14476 12.9518 3.95038 12.9199L1.98523 12.4592V10.5799L3.95743 10.0844C4.14989 10.0506 4.30427 9.9066 4.35114 9.71693C4.52588 9.00994 4.80548 8.33296 5.18058 7.70858C5.28238 7.53955 5.27359 7.32616 5.15847 7.16605L4.09306 5.45399L5.4221 4.12375L7.15936 5.1631C7.31988 5.27544 7.53153 5.28232 7.69896 5.18038C8.32439 4.80059 9.00295 4.51644 9.71245 4.33717C9.9008 4.28972 10.0439 4.13607 10.0777 3.94478L10.5765 1.98945L12.4584 1.9893L12.923 3.93162H12.9229C12.9551 4.12569 13.0995 4.28212 13.2904 4.32972C14.0037 4.50577 14.6866 4.78773 15.3165 5.16621C15.4834 5.2664 15.6936 5.25878 15.8531 5.14717L17.5721 4.1235L18.9023 5.45546L17.8637 7.1466C17.7492 7.30771 17.7417 7.52155 17.8448 7.69014C18.2268 8.32082 18.5114 9.00541 18.6892 9.72091C18.7359 9.91015 18.8897 10.0541 19.0816 10.0884L21.0091 10.5818V12.4622L19.0836 12.9238C18.8896 12.9559 18.7331 13.1003 18.6855 13.2913C18.5071 14.007 18.2225 14.6919 17.8411 15.3231C17.7396 15.4903 17.7464 15.7016 17.8584 15.8618L18.8776 17.5771L17.5466 18.9074L15.8479 17.8651C15.6879 17.751 15.4757 17.7427 15.3072 17.8439C14.6777 18.221 13.9952 18.5015 13.2823 18.6757C13.0901 18.723 12.945 18.8804 12.9132 19.0757L12.4568 21.0131ZM11.4977 15.4487C12.5447 15.4486 13.5489 15.0326 14.2891 14.2922C15.0295 13.5518 15.4453 12.5476 15.4452 11.5007C15.4452 10.4536 15.0292 9.44955 14.2888 8.70916C13.5484 7.96892 12.5442 7.55294 11.4971 7.55309C10.4502 7.55309 9.446 7.96922 8.70576 8.70961C7.96537 9.45 7.54954 10.4542 7.54969 11.5011C7.55159 12.5475 7.96814 13.5505 8.70812 14.2905C9.44806 15.0304 10.4511 15.447 11.4975 15.449L11.4977 15.4487ZM11.4977 14.4618C10.7124 14.4617 9.9594 14.1497 9.40412 13.5944C8.84884 13.0391 8.53703 12.2859 8.53703 11.5007C8.53718 10.7153 8.84915 9.96219 9.40442 9.40707C9.95981 8.85179 10.7129 8.53983 11.4982 8.53998C12.2835 8.53998 13.0367 8.8521 13.5918 9.40737C14.1471 9.96276 14.459 10.7159 14.4589 11.5011C14.4609 12.2871 14.1494 13.0414 13.5937 13.5971C13.0379 14.1528 12.2834 14.464 11.4975 14.4618L11.4977 14.4618Z"/>
</mask>
<path d="M12.8767 22C13.1182 21.9999 13.3242 21.825 13.3633 21.5867L13.8434 19.4992C14.4149 19.3336 14.9668 19.1067 15.4896 18.8225L17.3127 19.9527L17.3128 19.9528C17.5089 20.0927 17.7774 20.0704 17.9479 19.9003L19.8678 17.9821H19.868C20.0373 17.8127 20.0604 17.5459 19.9227 17.3498L18.8188 15.5125C19.1078 14.9864 19.3391 14.4306 19.5088 13.8548L21.5837 13.3674C21.8213 13.3274 21.9953 13.1217 21.9953 12.8808V10.1663C21.9957 9.92679 21.8242 9.72176 21.5884 9.67969L19.5117 9.16003C19.3429 8.58413 19.1122 8.02826 18.8235 7.50215L19.9487 5.68769H19.9488C20.0887 5.49157 20.0664 5.22308 19.8962 5.05259L17.9774 3.13269V3.13254C17.8083 2.96337 17.5422 2.93979 17.3461 3.07659L15.5028 4.18639C14.9786 3.90034 14.4251 3.67158 13.8518 3.50401L13.3631 1.4126H13.3632C13.3237 1.17459 13.1177 1.00015 12.8765 1H10.1626C9.92297 0.999707 9.71763 1.17166 9.67601 1.40762L9.15268 3.51061H9.15253C8.58174 3.6808 8.03074 3.91178 7.50932 4.19974L5.64975 3.07457H5.6496C5.45348 2.93689 5.18676 2.96003 5.01731 3.12949L3.09843 5.05055V5.05041C2.92764 5.22163 2.90597 5.49128 3.04731 5.68739L4.2006 7.52206C3.91807 8.041 3.69194 8.58862 3.52598 9.15575L1.40762 9.6763V9.67616C1.17166 9.7179 0.9997 9.9231 1 10.1629V12.8797C1.00015 13.1214 1.17562 13.3274 1.41422 13.3663L3.52759 13.8511C3.69471 14.4175 3.92145 14.9644 4.20428 15.4829L3.07558 17.3464C2.9379 17.5425 2.96104 17.8093 3.1305 17.9787L5.0504 19.8976C5.22148 20.0685 5.49128 20.0902 5.68738 19.9489L7.51399 18.8042C8.03601 19.0911 8.58761 19.3209 9.15912 19.4895L9.6757 21.5914C9.71686 21.8279 9.9225 22.0004 10.1625 22L12.8767 22ZM12.4568 21.0131H10.5769L10.0853 19.0588C10.0517 18.8663 9.90753 18.712 9.71785 18.6651C9.0069 18.488 8.32657 18.2049 7.69983 17.8253C7.53066 17.7227 7.31681 17.7311 7.15614 17.8465L5.44877 18.9043L4.11958 17.5751L5.16185 15.8339H5.162C5.27419 15.6741 5.28166 15.4633 5.18118 15.296C4.80608 14.6713 4.52576 13.9944 4.34938 13.2874C4.30163 13.0962 4.14476 12.9518 3.95038 12.9199L1.98523 12.4592V10.5799L3.95743 10.0844C4.14989 10.0506 4.30427 9.9066 4.35114 9.71693C4.52588 9.00994 4.80548 8.33296 5.18058 7.70858C5.28238 7.53955 5.27359 7.32616 5.15847 7.16605L4.09306 5.45399L5.4221 4.12375L7.15936 5.1631C7.31988 5.27544 7.53153 5.28232 7.69896 5.18038C8.32439 4.80059 9.00295 4.51644 9.71245 4.33717C9.9008 4.28972 10.0439 4.13607 10.0777 3.94478L10.5765 1.98945L12.4584 1.9893L12.923 3.93162H12.9229C12.9551 4.12569 13.0995 4.28212 13.2904 4.32972C14.0037 4.50577 14.6866 4.78773 15.3165 5.16621C15.4834 5.2664 15.6936 5.25878 15.8531 5.14717L17.5721 4.1235L18.9023 5.45546L17.8637 7.1466C17.7492 7.30771 17.7417 7.52155 17.8448 7.69014C18.2268 8.32082 18.5114 9.00541 18.6892 9.72091C18.7359 9.91015 18.8897 10.0541 19.0816 10.0884L21.0091 10.5818V12.4622L19.0836 12.9238C18.8896 12.9559 18.7331 13.1003 18.6855 13.2913C18.5071 14.007 18.2225 14.6919 17.8411 15.3231C17.7396 15.4903 17.7464 15.7016 17.8584 15.8618L18.8776 17.5771L17.5466 18.9074L15.8479 17.8651C15.6879 17.751 15.4757 17.7427 15.3072 17.8439C14.6777 18.221 13.9952 18.5015 13.2823 18.6757C13.0901 18.723 12.945 18.8804 12.9132 19.0757L12.4568 21.0131ZM11.4977 15.4487C12.5447 15.4486 13.5489 15.0326 14.2891 14.2922C15.0295 13.5518 15.4453 12.5476 15.4452 11.5007C15.4452 10.4536 15.0292 9.44955 14.2888 8.70916C13.5484 7.96892 12.5442 7.55294 11.4971 7.55309C10.4502 7.55309 9.446 7.96922 8.70576 8.70961C7.96537 9.45 7.54954 10.4542 7.54969 11.5011C7.55159 12.5475 7.96814 13.5505 8.70812 14.2905C9.44806 15.0304 10.4511 15.447 11.4975 15.449L11.4977 15.4487ZM11.4977 14.4618C10.7124 14.4617 9.9594 14.1497 9.40412 13.5944C8.84884 13.0391 8.53703 12.2859 8.53703 11.5007C8.53718 10.7153 8.84915 9.96219 9.40442 9.40707C9.95981 8.85179 10.7129 8.53983 11.4982 8.53998C12.2835 8.53998 13.0367 8.8521 13.5918 9.40737C14.1471 9.96276 14.459 10.7159 14.4589 11.5011C14.4609 12.2871 14.1494 13.0414 13.5937 13.5971C13.0379 14.1528 12.2834 14.464 11.4975 14.4618L11.4977 14.4618Z" fill="#12499C"/>
<path d="M12.8767 22C13.1182 21.9999 13.3242 21.825 13.3633 21.5867L13.8434 19.4992C14.4149 19.3336 14.9668 19.1067 15.4896 18.8225L17.3127 19.9527L17.3128 19.9528C17.5089 20.0927 17.7774 20.0704 17.9479 19.9003L19.8678 17.9821H19.868C20.0373 17.8127 20.0604 17.5459 19.9227 17.3498L18.8188 15.5125C19.1078 14.9864 19.3391 14.4306 19.5088 13.8548L21.5837 13.3674C21.8213 13.3274 21.9953 13.1217 21.9953 12.8808V10.1663C21.9957 9.92679 21.8242 9.72176 21.5884 9.67969L19.5117 9.16003C19.3429 8.58413 19.1122 8.02826 18.8235 7.50215L19.9487 5.68769H19.9488C20.0887 5.49157 20.0664 5.22308 19.8962 5.05259L17.9774 3.13269V3.13254C17.8083 2.96337 17.5422 2.93979 17.3461 3.07659L15.5028 4.18639C14.9786 3.90034 14.4251 3.67158 13.8518 3.50401L13.3631 1.4126H13.3632C13.3237 1.17459 13.1177 1.00015 12.8765 1H10.1626C9.92297 0.999707 9.71763 1.17166 9.67601 1.40762L9.15268 3.51061H9.15253C8.58174 3.6808 8.03074 3.91178 7.50932 4.19974L5.64975 3.07457H5.6496C5.45348 2.93689 5.18676 2.96003 5.01731 3.12949L3.09843 5.05055V5.05041C2.92764 5.22163 2.90597 5.49128 3.04731 5.68739L4.2006 7.52206C3.91807 8.041 3.69194 8.58862 3.52598 9.15575L1.40762 9.6763V9.67616C1.17166 9.7179 0.9997 9.9231 1 10.1629V12.8797C1.00015 13.1214 1.17562 13.3274 1.41422 13.3663L3.52759 13.8511C3.69471 14.4175 3.92145 14.9644 4.20428 15.4829L3.07558 17.3464C2.9379 17.5425 2.96104 17.8093 3.1305 17.9787L5.0504 19.8976C5.22148 20.0685 5.49128 20.0902 5.68738 19.9489L7.51399 18.8042C8.03601 19.0911 8.58761 19.3209 9.15912 19.4895L9.6757 21.5914C9.71686 21.8279 9.9225 22.0004 10.1625 22L12.8767 22ZM12.4568 21.0131H10.5769L10.0853 19.0588C10.0517 18.8663 9.90753 18.712 9.71785 18.6651C9.0069 18.488 8.32657 18.2049 7.69983 17.8253C7.53066 17.7227 7.31681 17.7311 7.15614 17.8465L5.44877 18.9043L4.11958 17.5751L5.16185 15.8339H5.162C5.27419 15.6741 5.28166 15.4633 5.18118 15.296C4.80608 14.6713 4.52576 13.9944 4.34938 13.2874C4.30163 13.0962 4.14476 12.9518 3.95038 12.9199L1.98523 12.4592V10.5799L3.95743 10.0844C4.14989 10.0506 4.30427 9.9066 4.35114 9.71693C4.52588 9.00994 4.80548 8.33296 5.18058 7.70858C5.28238 7.53955 5.27359 7.32616 5.15847 7.16605L4.09306 5.45399L5.4221 4.12375L7.15936 5.1631C7.31988 5.27544 7.53153 5.28232 7.69896 5.18038C8.32439 4.80059 9.00295 4.51644 9.71245 4.33717C9.9008 4.28972 10.0439 4.13607 10.0777 3.94478L10.5765 1.98945L12.4584 1.9893L12.923 3.93162H12.9229C12.9551 4.12569 13.0995 4.28212 13.2904 4.32972C14.0037 4.50577 14.6866 4.78773 15.3165 5.16621C15.4834 5.2664 15.6936 5.25878 15.8531 5.14717L17.5721 4.1235L18.9023 5.45546L17.8637 7.1466C17.7492 7.30771 17.7417 7.52155 17.8448 7.69014C18.2268 8.32082 18.5114 9.00541 18.6892 9.72091C18.7359 9.91015 18.8897 10.0541 19.0816 10.0884L21.0091 10.5818V12.4622L19.0836 12.9238C18.8896 12.9559 18.7331 13.1003 18.6855 13.2913C18.5071 14.007 18.2225 14.6919 17.8411 15.3231C17.7396 15.4903 17.7464 15.7016 17.8584 15.8618L18.8776 17.5771L17.5466 18.9074L15.8479 17.8651C15.6879 17.751 15.4757 17.7427 15.3072 17.8439C14.6777 18.221 13.9952 18.5015 13.2823 18.6757C13.0901 18.723 12.945 18.8804 12.9132 19.0757L12.4568 21.0131ZM11.4977 15.4487C12.5447 15.4486 13.5489 15.0326 14.2891 14.2922C15.0295 13.5518 15.4453 12.5476 15.4452 11.5007C15.4452 10.4536 15.0292 9.44955 14.2888 8.70916C13.5484 7.96892 12.5442 7.55294 11.4971 7.55309C10.4502 7.55309 9.446 7.96922 8.70576 8.70961C7.96537 9.45 7.54954 10.4542 7.54969 11.5011C7.55159 12.5475 7.96814 13.5505 8.70812 14.2905C9.44806 15.0304 10.4511 15.447 11.4975 15.449L11.4977 15.4487ZM11.4977 14.4618C10.7124 14.4617 9.9594 14.1497 9.40412 13.5944C8.84884 13.0391 8.53703 12.2859 8.53703 11.5007C8.53718 10.7153 8.84915 9.96219 9.40442 9.40707C9.95981 8.85179 10.7129 8.53983 11.4982 8.53998C12.2835 8.53998 13.0367 8.8521 13.5918 9.40737C14.1471 9.96276 14.459 10.7159 14.4589 11.5011C14.4609 12.2871 14.1494 13.0414 13.5937 13.5971C13.0379 14.1528 12.2834 14.464 11.4975 14.4618L11.4977 14.4618Z" stroke="#12499C" mask="url(#path-1-outside-1_396_18868)"/>
</svg>
